<svg width="58" height="58" viewBox="0 0 58 58" fill="none" xmlns="http://www.w3.org/2000/svg">
<circle cx="29" cy="29" r="29" fill="#358E94"/>
<path d="M27.1105 25.9666V38.8639" stroke="white" stroke-width="4.10526" stroke-linecap="round" stroke-linejoin="round"/>
<path d="M27.1105 32.9113C27.1105 31.0694 27.8422 29.303 29.1446 28.0006C30.447 26.6982 32.2134 25.9666 34.0553 25.9666C35.8971 25.9666 37.6636 26.6982 38.9659 28.0006C40.2683 29.303 41 31.0694 41 32.9113V38.8639" stroke="white" stroke-width="4.10526" stroke-linecap="round" stroke-linejoin="round"/>
<path d="M18.1895 25.9666V38.8639" stroke="white" stroke-width="4.10526" stroke-linecap="round" stroke-linejoin="round"/>
<path d="M18.1895 19.7007C19.5702 19.7007 20.6895 18.5814 20.6895 17.2007C20.6895 15.82 19.5702 14.7007 18.1895 14.7007C16.8087 14.7007 15.6895 15.82 15.6895 17.2007C15.6895 18.5814 16.8087 19.7007 18.1895 19.7007Z" fill="white"/>
</svg>
