<svg width="58" height="58" viewBox="0 0 58 58" fill="none" xmlns="http://www.w3.org/2000/svg">
<circle cx="29" cy="29" r="29" fill="#358E94"/>
<g clip-path="url(#clip0_89_104)">
<path d="M14 28.375H23.0625C24.4715 28.375 25.8227 28.9347 26.819 29.931C27.8153 30.9273 28.375 32.2785 28.375 33.6875C28.375 35.0965 27.8153 36.4477 26.819 37.444C25.8227 38.4403 24.4715 39 23.0625 39H14V19H22.4375C23.6807 19 24.873 19.4939 25.7521 20.3729C26.6311 21.252 27.125 22.4443 27.125 23.6875C27.125 24.9307 26.6311 26.123 25.7521 27.0021C24.873 27.8811 23.6807 28.375 22.4375 28.375" stroke="white" stroke-width="3.75" stroke-linecap="round" stroke-linejoin="round"/>
<path d="M35.25 20.875H45.25" stroke="white" stroke-width="3.75" stroke-linecap="round" stroke-linejoin="round"/>
<path d="M42.9766 38.375C41.756 38.9668 40.376 39.1454 39.0449 38.8838C37.7139 38.6223 36.5041 37.9348 35.5981 36.9251C34.6922 35.9155 34.1394 34.6385 34.023 33.2871C33.9067 31.9356 34.2332 30.5829 34.9533 29.4333C35.6734 28.2837 36.748 27.3996 38.0147 26.9145C39.2815 26.4293 40.6717 26.3695 41.9755 26.744C43.2793 27.1185 44.4258 27.907 45.242 28.9905C46.0582 30.0739 46.4998 31.3935 46.5 32.75H34" stroke="white" stroke-width="3.75" stroke-linecap="round" stroke-linejoin="round"/>
</g>
<defs>
<clipPath id="clip0_89_104">
<rect width="40" height="40" fill="white" transform="translate(9 9)"/>
</clipPath>
</defs>
</svg>
