<svg width="180" height="80" viewBox="0 0 180 80" fill="none" xmlns="http://www.w3.org/2000/svg">
<path d="M172.824 67.4746V54.7831C172.824 49.861 170.139 47.339 166.071 47.339C161.922 47.339 159.034 49.9424 159.034 55.3526V67.4746H156.187V45.2644H159.034V49.0475C160.458 46.2814 163.305 44.8576 166.6 44.8576C171.644 44.8576 175.631 47.9492 175.631 54.4576V67.4746H172.824Z" fill="white"/>
<path d="M119.3 56.3289C119.3 49.3729 123.815 44.939 129.917 44.939C134.31 44.939 137.442 47.2983 138.703 50.1051V45.2644H141.55V68.0441C141.55 74.2678 137.279 78.3763 131.178 78.3763C125.442 78.3763 121.455 75.4475 120.561 70.8102H123.367C124.303 73.8204 127.11 75.895 131.178 75.895C135.408 75.895 138.703 73.0882 138.703 68.0441V62.5526C137.401 65.4 134.31 67.8 129.917 67.8C123.815 67.8 119.3 63.2848 119.3 56.3289ZM138.703 56.3695C138.703 50.8373 135.001 47.4204 130.445 47.4204C125.767 47.4204 122.188 50.6746 122.188 56.3289C122.188 61.9424 125.767 65.3187 130.445 65.3187C135.001 65.3187 138.703 61.9017 138.703 56.3695Z" fill="white"/>
<path d="M103.17 67.4746V45.2644H106.018V67.4746H103.17ZM104.594 42.0916C103.455 42.0916 102.519 41.1967 102.519 39.9763C102.519 38.756 103.455 37.9017 104.594 37.9017C105.733 37.9017 106.668 38.756 106.668 39.9763C106.668 41.1967 105.733 42.0916 104.594 42.0916Z" fill="white"/>
<path d="M89.6745 61.5763C89.6745 65.156 86.5423 67.8 81.9457 67.8C76.9017 67.8 73.3627 65.278 72.9966 61.2102H75.9254C76.1695 63.6509 78.2847 65.4 81.9051 65.4C85.0779 65.4 86.8678 63.6916 86.8678 61.5763C86.8678 56.0848 73.5254 59.2983 73.5254 50.9594C73.5254 47.6644 76.6576 44.939 81.3356 44.939C86.0949 44.939 89.2271 47.4611 89.4712 51.7322H86.6237C86.461 49.2509 84.6305 47.3797 81.2542 47.3797C78.2847 47.3797 76.4135 48.9661 76.4135 50.9187C76.4135 56.939 89.5525 53.7255 89.6745 61.5763Z" fill="white"/>
<path d="M50.3361 47.3797C46.309 47.3797 42.77 49.9831 42.4446 55.1492H58.0649C58.187 49.9831 54.4446 47.3797 50.3361 47.3797ZM60.6276 60.4373C59.6107 64.6272 56.031 67.8 50.4582 67.8C44.1531 67.8 39.5565 63.4068 39.5565 56.3695C39.5565 49.2916 44.0717 44.939 50.4582 44.939C56.9666 44.939 60.9531 49.5763 60.9531 55.2305C60.9531 56.1255 60.9531 56.695 60.8717 57.4678H42.4446C42.6887 62.6746 46.309 65.4 50.4582 65.4C54.2412 65.4 56.8039 63.4068 57.6175 60.4373H60.6276Z" fill="white"/>
<path d="M23.1204 17.0339V49.678V62.8983V67.4746H25.9678V9.91528L23.1204 17.0339Z" fill="white"/>
<path fill-rule="evenodd" clip-rule="evenodd" d="M14.7305 67.678C8.55241 67.678 3.54407 62.6697 3.54407 56.4916C3.54407 50.3135 8.55241 45.3051 14.7305 45.3051C20.9086 45.3051 25.9169 50.3135 25.9169 56.4916C25.9169 62.6697 20.9086 67.678 14.7305 67.678Z" fill="white"/>
<path d="M10.917 63.0985C9.46291 62.2591 8.3265 60.9632 7.68398 59.412C7.04145 57.8609 6.92873 56.141 7.36328 54.5192C7.79784 52.8974 8.75539 51.4644 10.0874 50.4423C11.4195 49.4202 13.0515 48.8661 14.7305 48.8661C16.4095 48.8661 18.0416 49.4202 19.3736 50.4423C20.7056 51.4644 21.6632 52.8974 22.0977 54.5192C22.5323 56.141 22.4196 57.8609 21.7771 59.412C21.1345 60.9632 19.9981 62.2591 18.5441 63.0985V60.3051L14.7305 52.0424L10.917 60.3051V63.0985Z" fill="#C0C0C0"/>
<path fill-rule="evenodd" clip-rule="evenodd" d="M14.7305 49.5C10.8692 49.5 7.73896 52.6302 7.73896 56.4916C7.73896 60.3529 10.8692 63.4831 14.7305 63.4831C18.5918 63.4831 21.722 60.3529 21.722 56.4916C21.722 52.6302 18.5918 49.5 14.7305 49.5ZM6.46777 56.4916C6.46777 51.9282 10.1671 48.2289 14.7305 48.2289C19.2939 48.2289 22.9932 51.9282 22.9932 56.4916C22.9932 61.0549 19.2939 64.7543 14.7305 64.7543C10.1671 64.7543 6.46777 61.0549 6.46777 56.4916Z" fill="#111111"/>
<path fill-rule="evenodd" clip-rule="evenodd" d="M14.7305 51.4068C14.9784 51.4068 15.2037 51.5509 15.3076 51.776L19.1212 60.0388C19.1597 60.1223 19.1797 60.2131 19.1797 60.3051V63.0985C19.1797 63.4496 18.8951 63.7341 18.5441 63.7341C18.1931 63.7341 17.9085 63.4496 17.9085 63.0985V60.4447L14.7305 53.5591L11.5526 60.4447V63.0985C11.5526 63.4496 11.268 63.7341 10.917 63.7341C10.5659 63.7341 10.2814 63.4496 10.2814 63.0985V60.3051C10.2814 60.2131 10.3013 60.1223 10.3399 60.0388L14.1534 51.776C14.2573 51.5509 14.4826 51.4068 14.7305 51.4068Z" fill="#111111"/>
<path fill-rule="evenodd" clip-rule="evenodd" d="M16.6373 60.3051C16.3001 60.3051 15.9768 60.439 15.7384 60.6774C15.5 60.9158 15.3661 61.2392 15.3661 61.5763C15.3661 61.9273 15.0815 62.2119 14.7305 62.2119C14.3795 62.2119 14.0949 61.9273 14.0949 61.5763C14.0949 60.902 14.3628 60.2554 14.8396 59.7786C15.3163 59.3018 15.963 59.0339 16.6373 59.0339C17.3116 59.0339 17.9582 59.3018 18.435 59.7786C18.9118 60.2554 19.1797 60.902 19.1797 61.5763C19.1797 61.9273 18.8951 62.2119 18.5441 62.2119C18.193 62.2119 17.9085 61.9273 17.9085 61.5763C17.9085 61.2392 17.7745 60.9158 17.5361 60.6774C17.2978 60.439 16.9744 60.3051 16.6373 60.3051Z" fill="#111111"/>
<path fill-rule="evenodd" clip-rule="evenodd" d="M11.026 59.7786C11.5028 59.3018 12.1495 59.0339 12.8237 59.0339C13.498 59.0339 14.1447 59.3018 14.6215 59.7786C15.0983 60.2554 15.3661 60.902 15.3661 61.5763V64.1187C15.3661 64.4697 15.0816 64.7543 14.7305 64.7543C14.3795 64.7543 14.0949 64.4697 14.0949 64.1187V61.5763C14.0949 61.2392 13.961 60.9158 13.7226 60.6774C13.4842 60.439 13.1609 60.3051 12.8237 60.3051C12.4866 60.3051 12.1633 60.439 11.9249 60.6774C11.6865 60.9158 11.5526 61.2392 11.5526 61.5763C11.5526 61.9273 11.268 62.2119 10.917 62.2119C10.5659 62.2119 10.2814 61.9273 10.2814 61.5763C10.2814 60.902 10.5492 60.2554 11.026 59.7786Z" fill="#111111"/>
<path fill-rule="evenodd" clip-rule="evenodd" d="M12.0411 56.4916C12.0411 56.1405 12.3257 55.856 12.6767 55.856H16.7843C17.1353 55.856 17.4198 56.1405 17.4198 56.4916C17.4198 56.8426 17.1353 57.1271 16.7843 57.1271H12.6767C12.3257 57.1271 12.0411 56.8426 12.0411 56.4916Z" fill="#111111"/>
<path d="M168.126 7.99118C169.517 7.99118 170.64 8.12542 171.494 8.39389C172.373 8.63796 173.227 8.99186 174.057 9.45559C174.325 9.60203 174.557 9.72406 174.752 9.82169C174.972 9.91932 175.155 9.96813 175.301 9.96813C175.521 9.96813 175.692 9.8461 175.814 9.60203C175.936 9.33355 176.034 8.91864 176.107 8.35728H176.949C176.827 10.1146 176.766 13.0922 176.766 17.2902H175.924C175.826 15.899 175.509 14.5688 174.972 13.2997C174.435 12.0305 173.703 10.9932 172.775 10.1878C171.848 9.38237 170.774 8.97966 169.554 8.97966C168.431 8.97966 167.528 9.28474 166.845 9.89491C166.161 10.4807 165.819 11.3105 165.819 12.3844C165.819 13.2142 166.002 13.9342 166.369 14.5444C166.735 15.1546 167.272 15.7525 167.979 16.3383C168.687 16.8997 169.847 17.7417 171.457 18.8644C171.604 18.9376 171.738 19.023 171.86 19.1207C172.007 19.2183 172.141 19.3159 172.263 19.4136C173.605 20.341 174.679 21.1708 175.485 21.903C176.29 22.6108 176.937 23.4407 177.425 24.3925C177.937 25.3444 178.194 26.4427 178.194 27.6875C178.194 29.2739 177.742 30.6163 176.839 31.7146C175.96 32.7885 174.765 33.5939 173.251 34.1308C171.738 34.6678 170.066 34.9363 168.236 34.9363C166.747 34.9363 165.502 34.8142 164.501 34.5702C163.525 34.3261 162.61 33.9966 161.756 33.5817C161.219 33.24 160.804 33.0691 160.511 33.0691C160.291 33.0691 160.12 33.2034 159.998 33.4719C159.876 33.7159 159.779 34.1186 159.706 34.68H158.864C158.961 33.0203 159.01 29.4814 159.01 24.063H159.852C160.023 26.9675 160.633 29.3227 161.682 31.1288C162.732 32.9349 164.343 33.838 166.515 33.838C167.857 33.838 168.919 33.5207 169.7 32.8861C170.506 32.2515 170.908 31.3729 170.908 30.2502C170.908 28.859 170.469 27.6753 169.59 26.699C168.736 25.6983 167.394 24.5878 165.563 23.3675C164.099 22.3912 162.927 21.5369 162.049 20.8047C161.17 20.0725 160.45 19.2305 159.889 18.2786C159.327 17.3024 159.047 16.1797 159.047 14.9105C159.047 13.3729 159.461 12.0915 160.291 11.0664C161.121 10.0169 162.219 9.24813 163.586 8.76C164.977 8.24745 166.491 7.99118 168.126 7.99118Z" fill="#111111"/>
<path d="M156.359 9.23593C155.602 9.40677 155.041 9.67525 154.675 10.0414C154.309 10.383 154.064 10.92 153.942 11.6522C153.82 12.3844 153.759 13.4827 153.759 14.9471V34.4237C153.271 34.3749 152.869 34.3505 152.551 34.3505C152.283 34.3505 151.831 34.3749 151.197 34.4237L134.978 16.7044V27.2481C134.978 29.0542 135.052 30.36 135.198 31.1654C135.344 31.9464 135.662 32.52 136.15 32.8861C136.662 33.2522 137.504 33.5207 138.676 33.6915V34.4237C137.675 34.3505 136.309 34.3139 134.576 34.3139C133.282 34.3139 132.269 34.3505 131.537 34.4237V33.6915C132.294 33.5207 132.855 33.2644 133.221 32.9227C133.587 32.5566 133.831 32.0075 133.953 31.2752C134.075 30.543 134.136 29.4447 134.136 27.9803V12.3844C134.136 11.4569 134.063 10.7858 133.917 10.3708C133.795 9.95593 133.563 9.67525 133.221 9.52881C132.879 9.38237 132.318 9.28474 131.537 9.23593V8.50372C132.269 8.57694 133.282 8.61355 134.576 8.61355C135.894 8.61355 137.016 8.57694 137.944 8.50372L152.917 24.3193V15.6793C152.917 13.8732 152.844 12.5797 152.698 11.7986C152.551 10.9932 152.222 10.4075 151.709 10.0414C151.221 9.67525 150.391 9.40677 149.22 9.23593V8.50372C150.22 8.57694 151.587 8.61355 153.32 8.61355C154.614 8.61355 155.626 8.57694 156.359 8.50372V9.23593Z" fill="#111111"/>
<path d="M128.777 28.2732C128.777 30.7627 128.862 32.8129 129.033 34.4237C127.373 34.3505 124.579 34.3139 120.649 34.3139C114.938 34.3139 110.667 34.3505 107.836 34.4237V33.6915C108.617 33.6427 109.178 33.5451 109.52 33.3986C109.886 33.2522 110.13 32.9715 110.252 32.5566C110.374 32.1417 110.435 31.4705 110.435 30.543V12.3844C110.435 11.4569 110.362 10.7858 110.215 10.3708C110.093 9.95593 109.862 9.67525 109.52 9.52881C109.178 9.38237 108.617 9.28474 107.836 9.23593V8.50372C110.667 8.57694 114.938 8.61355 120.649 8.61355C124.237 8.61355 126.788 8.57694 128.301 8.50372C128.13 10.798 128.045 12.8481 128.045 14.6542C128.045 15.7769 128.081 16.6556 128.154 17.2902H127.312C126.873 14.459 126.055 12.4332 124.86 11.2129C123.664 9.96813 122.236 9.34575 120.576 9.34575H120.1C119.441 9.34575 118.953 9.40677 118.636 9.52881C118.343 9.62643 118.135 9.83389 118.013 10.1512C117.916 10.4441 117.867 10.9444 117.867 11.6522V21.0244H118.233C119.502 21.0244 120.588 20.5241 121.491 19.5234C122.394 18.5227 122.968 17.4122 123.212 16.1919H124.054C123.981 17.2169 123.944 18.3641 123.944 19.6332V21.3905C123.944 22.6352 124.018 24.3681 124.164 26.5891H123.322C123.102 25.198 122.529 24.0508 121.601 23.1478C120.698 22.2203 119.575 21.7566 118.233 21.7566H117.867V31.2752C117.867 31.983 117.916 32.4956 118.013 32.8129C118.135 33.1058 118.343 33.3132 118.636 33.4352C118.953 33.5329 119.441 33.5817 120.1 33.5817H121.308C122.724 33.5817 124.066 32.8983 125.335 31.5315C126.605 30.1403 127.508 27.9315 128.045 24.9051H128.887C128.813 25.7837 128.777 26.9064 128.777 28.2732Z" fill="#111111"/>
<path d="M98.0984 9.23593C97.2198 9.28474 96.573 9.38237 96.1581 9.52881C95.7676 9.67525 95.4991 9.95593 95.3526 10.3708C95.2062 10.7858 95.133 11.4569 95.133 12.3844V31.2752C95.133 31.9586 95.1818 32.459 95.2794 32.7763C95.3771 33.0936 95.5479 33.3132 95.792 33.4352C96.036 33.5329 96.4388 33.5817 97.0001 33.5817H98.2082C99.0625 33.5817 99.9899 33.1546 100.991 32.3003C101.991 31.4461 102.894 30.3234 103.7 28.9322C104.505 27.5166 105.042 26.0522 105.311 24.539H106.153C106.079 25.4176 106.043 26.5403 106.043 27.9071C106.043 30.543 106.128 32.7152 106.299 34.4237C104.639 34.3505 101.845 34.3139 97.9154 34.3139C92.2042 34.3139 87.933 34.3505 85.1018 34.4237V33.6915C85.8828 33.6427 86.4442 33.5451 86.7859 33.3986C87.152 33.2522 87.396 32.9715 87.5181 32.5566C87.6401 32.1417 87.7011 31.4705 87.7011 30.543V12.3844C87.7011 11.4569 87.6279 10.7858 87.4815 10.3708C87.3594 9.95593 87.1276 9.67525 86.7859 9.52881C86.4442 9.38237 85.8828 9.28474 85.1018 9.23593V8.50372C86.493 8.57694 88.6652 8.61355 91.6184 8.61355C94.4252 8.61355 96.5852 8.57694 98.0984 8.50372V9.23593Z" fill="#111111"/>
<path d="M75.3644 9.23593C74.4858 9.28474 73.839 9.38237 73.4241 9.52881C73.0336 9.67525 72.7651 9.95593 72.6186 10.3708C72.4722 10.7858 72.399 11.4569 72.399 12.3844V31.2752C72.399 31.9586 72.4478 32.459 72.5454 32.7763C72.6431 33.0936 72.8139 33.3132 73.058 33.4352C73.302 33.5329 73.7047 33.5817 74.2661 33.5817H75.4742C76.3285 33.5817 77.2559 33.1546 78.2566 32.3003C79.2573 31.4461 80.1603 30.3234 80.9658 28.9322C81.7712 27.5166 82.3081 26.0522 82.5766 24.539H83.4186C83.3454 25.4176 83.3088 26.5403 83.3088 27.9071C83.3088 30.543 83.3942 32.7152 83.5651 34.4237C81.9054 34.3505 79.1109 34.3139 75.1814 34.3139C69.4702 34.3139 65.199 34.3505 62.3678 34.4237V33.6915C63.1488 33.6427 63.7102 33.5451 64.0519 33.3986C64.418 33.2522 64.662 32.9715 64.7841 32.5566C64.9061 32.1417 64.9671 31.4705 64.9671 30.543V12.3844C64.9671 11.4569 64.8939 10.7858 64.7475 10.3708C64.6254 9.95593 64.3936 9.67525 64.0519 9.52881C63.7102 9.38237 63.1488 9.28474 62.3678 9.23593V8.50372C63.759 8.57694 65.9312 8.61355 68.8844 8.61355C71.6912 8.61355 73.8512 8.57694 75.3644 8.50372V9.23593Z" fill="#111111"/>
<path d="M61.0733 9.23593C60.3167 9.40677 59.7553 9.67525 59.3892 10.0414C59.0231 10.383 58.779 10.92 58.657 11.6522C58.535 12.3844 58.4739 13.4827 58.4739 14.9471V23.7702C58.4739 27.2847 57.9736 29.8719 56.9729 31.5315C56.314 32.6298 55.3377 33.4719 54.0441 34.0576C52.775 34.6434 51.1275 34.9363 49.1017 34.9363C46.1485 34.9363 43.8543 34.3505 42.219 33.179C41.0231 32.3247 40.2177 31.1776 39.8028 29.7376C39.4123 28.2976 39.217 26.3451 39.217 23.88V12.3844C39.217 11.4569 39.156 10.7858 39.034 10.3708C38.9119 9.95593 38.6678 9.67525 38.3017 9.52881C37.9601 9.38237 37.3987 9.28474 36.6177 9.23593V8.50372C38.0089 8.57694 40.1567 8.61355 43.0611 8.61355C45.9411 8.61355 48.1255 8.57694 49.6143 8.50372V9.23593C48.7356 9.28474 48.0889 9.38237 47.6739 9.52881C47.2834 9.67525 47.015 9.95593 46.8685 10.3708C46.7221 10.7858 46.6489 11.4569 46.6489 12.3844V27.3214C46.6489 29.6644 47.015 31.3119 47.7472 32.2637C48.4794 33.1912 49.6387 33.6549 51.2251 33.6549C53.5438 33.6549 55.1912 32.8373 56.1675 31.202C57.1438 29.5424 57.6319 27.1993 57.6319 24.1729V15.6793C57.6319 13.8732 57.5587 12.5797 57.4123 11.7986C57.2658 10.9932 56.9363 10.4075 56.4238 10.0414C55.9356 9.67525 55.1058 9.40677 53.9343 9.23593V8.50372C54.935 8.57694 56.3017 8.61355 58.0346 8.61355C59.3282 8.61355 60.3411 8.57694 61.0733 8.50372V9.23593Z" fill="#111111"/>
<path d="M35.3054 9.23593C34.5244 9.28474 33.9508 9.38237 33.5847 9.52881C33.243 9.67525 33.0112 9.95593 32.8891 10.3708C32.7671 10.7858 32.7061 11.4569 32.7061 12.3844V30.543C32.7061 31.4705 32.7671 32.1417 32.8891 32.5566C33.0356 32.9715 33.2796 33.2522 33.6213 33.3986C33.963 33.5451 34.5244 33.6427 35.3054 33.6915V34.4237C33.8166 34.3505 31.6566 34.3139 28.8254 34.3139C25.8722 34.3139 23.7 34.3505 22.3088 34.4237V33.6915C23.1874 33.6427 23.822 33.5451 24.2125 33.3986C24.6274 33.2522 24.9081 32.9715 25.0546 32.5566C25.201 32.1417 25.2742 31.4705 25.2742 30.543V11.8352L16.4512 34.3871H15.8654L5.54133 10.8834V27.2481C5.54133 29.0542 5.61455 30.36 5.76099 31.1654C5.90743 31.9464 6.22472 32.52 6.71286 32.8861C7.2254 33.2522 8.06743 33.5207 9.23896 33.6915V34.4237C8.23828 34.3505 6.8715 34.3139 5.13862 34.3139C3.84506 34.3139 2.83218 34.3505 2.09998 34.4237V33.6915C2.85659 33.5207 3.41794 33.2644 3.78404 32.9227C4.15015 32.5566 4.39421 32.0075 4.51625 31.2752C4.63828 30.543 4.6993 29.4447 4.6993 27.9803V12.3844C4.6993 11.4569 4.62608 10.7858 4.47964 10.3708C4.3576 9.95593 4.12574 9.67525 3.78404 9.52881C3.44235 9.38237 2.88099 9.28474 2.09998 9.23593V8.50372C2.83218 8.57694 3.84506 8.61355 5.13862 8.61355C8.06743 8.61355 10.5935 8.57694 12.7169 8.50372L19.6362 24.063L25.6403 8.61355H28.8254C31.6566 8.61355 33.8166 8.57694 35.3054 8.50372V9.23593Z" fill="#111111"/>
</svg>
