<svg width="81" height="81" viewBox="0 0 81 81" fill="none" xmlns="http://www.w3.org/2000/svg">
<path fill-rule="evenodd" clip-rule="evenodd" d="M21.375 9.00384C21.375 6.26567 23.6136 4.04594 26.375 4.04594C29.1364 4.04594 31.375 6.26567 31.375 9.00384C31.375 11.742 29.1364 13.9618 26.375 13.9618C23.6136 13.9618 21.375 11.742 21.375 9.00384Z" fill="#D24419"/>
<path d="M53.1427 0.981706C54.8084 0.368373 56.7712 0.989546 57.6383 2.64495C61.1111 9.27522 60.7961 14.8538 58.0992 19.9216C57.4622 21.1187 56.7543 22.0626 56.0172 22.8353C64.8638 29.7017 70.9427 40.9273 71.5541 52.0815C72.4665 52.2322 73.3258 52.692 73.9534 53.4529L76.182 56.1552C77.5871 57.8589 77.3379 60.5881 75.168 61.7211C73.6119 62.5335 71.8931 63.1935 70.0501 63.5567C67.4457 70.2408 59.7001 74.3828 52.2555 74.4016L31.3087 74.39L13.3343 74.5C7.41791 74.5 5.6005 68.6374 7.36082 64.4355L22.4132 28.505C25.1221 22.0388 30.2915 16.2 37.3701 16.1416C40.2023 16.1182 42.963 16.5449 45.6086 17.3503C46.1053 16.9865 46.6202 16.5667 47.1599 16.0616C49.1916 14.1603 49.673 12.4614 49.6084 11.011C49.5394 9.46132 48.8486 8.02521 48.1508 6.63114C47.2121 4.75585 48.2592 2.77994 50.0497 2.12063L53.1427 0.981706Z" fill="#D24419"/>
<path d="M77.625 37.5118C77.625 38.8809 76.5057 39.9908 75.125 39.9908C73.7443 39.9908 72.625 38.8809 72.625 37.5118C72.625 36.1427 73.7443 35.0329 75.125 35.0329C76.5057 35.0329 77.625 36.1427 77.625 37.5118Z" fill="#D24419"/>
<path d="M8.20316 23.4998C8.67949 22.3509 10.3205 22.3509 10.7968 23.4998L11.5821 25.3939C11.7245 25.7373 11.9995 26.01 12.3458 26.1512L14.256 26.9298C15.4147 27.4021 15.4147 29.0293 14.256 29.5017L12.3458 30.2803C11.9995 30.4215 11.7245 30.6942 11.5821 31.0376L10.7968 32.9317C10.3205 34.0806 8.67949 34.0806 8.20316 32.9317L7.41791 31.0376C7.27553 30.6942 7.00053 30.4215 6.65419 30.2803L4.74403 29.5017C3.58532 29.0293 3.58532 27.4021 4.74403 26.9298L6.65419 26.1512C7.00053 26.01 7.27553 25.7373 7.41791 25.3939L8.20316 23.4998Z" fill="#D24419"/>
<path d="M69.4326 16.0766C69.9165 14.9094 71.5835 14.9094 72.0674 16.0766L72.475 17.0596C72.6196 17.4085 72.899 17.6855 73.2508 17.8289L74.2422 18.233C75.4193 18.7129 75.4193 20.3659 74.2422 20.8458L73.2508 21.2499C72.899 21.3933 72.6196 21.6703 72.475 22.0192L72.0674 23.0022C71.5835 24.1694 69.9165 24.1694 69.4326 23.0022L69.025 22.0192C68.8804 21.6703 68.601 21.3933 68.2492 21.2499L67.2578 20.8458C66.0807 20.3659 66.0807 18.7129 67.2578 18.233L68.2492 17.8289C68.601 17.6855 68.8804 17.4085 69.025 17.0596L69.4326 16.0766Z" fill="#D24419"/>
<path d="M17.4576 46.4186L24.0409 30.3975C24.3447 29.6584 24.6761 28.9408 25.0337 28.25C22.7445 35.6765 24.8357 46.2001 31.1925 55.6468C37.8149 65.488 47.2264 71.4256 55.125 71.5932C53.8693 71.7945 52.5627 71.8975 51.2295 71.9009L31.2701 71.9524C16.9716 64.249 16.2493 51.4278 17.4576 46.4186Z" fill="white"/>
<path d="M14.759 52.9859L9.17376 66.5779C8.11587 69.1524 9.99619 72.0072 12.7871 72L26.5416 71.9645C18.4331 66.2945 15.449 58.8786 14.759 52.9859Z" fill="white"/>
<path d="M17.4576 46.4186L24.0409 30.3975C24.3447 29.6584 24.6761 28.9408 25.0337 28.25C22.7445 35.6765 24.8357 46.2001 31.1925 55.6468C37.8149 65.488 47.2264 71.4256 55.125 71.5932C53.8693 71.7945 52.5627 71.8975 51.2295 71.9009L31.2701 71.9524C16.9716 64.249 16.2493 51.4278 17.4576 46.4186Z" fill="#FFF3DA"/>
<path d="M14.759 52.9859L9.17376 66.5779C8.11587 69.1524 9.99619 72.0072 12.7871 72L26.5416 71.9645C18.4331 66.2945 15.449 58.8786 14.759 52.9859Z" fill="#FFF3DA"/>
<path d="M23.875 8.9426C23.875 7.55579 25.0067 6.43157 26.4027 6.43157C27.7986 6.43157 28.9303 7.55579 28.9303 8.9426C28.9303 10.3294 27.7986 11.4536 26.4027 11.4536C25.0067 11.4536 23.875 10.3294 23.875 8.9426Z" fill="#FDFDFC"/>
<path d="M35.2495 49.119C35.2495 47.7322 36.3811 46.608 37.7771 46.608C39.1731 46.608 40.3048 47.7322 40.3048 49.119C40.3048 50.5058 39.1731 51.63 37.7771 51.63C36.3811 51.63 35.2495 50.5058 35.2495 49.119Z" fill="#FDFDFC"/>
<path d="M54.3465 3.17063C54.935 2.95352 55.528 3.19841 55.7686 3.65879C58.9147 9.67641 58.5655 14.4561 56.2424 18.8297C54.8167 21.5138 53.2346 22.4644 51.3735 23.5826C50.7091 23.9818 50.009 24.4024 49.2679 24.9309C47.88 25.9205 46.5351 27.2152 45.3802 29.3604C44.2405 31.4773 43.3131 34.3713 42.6599 38.5274C42.5032 39.5244 41.4226 39.9985 40.657 39.5592L36.9912 37.4556C36.5142 37.1819 36.2781 36.6398 36.3961 36.1254C38.359 27.5651 40.0926 24.5817 41.834 22.9921C42.6345 22.2614 43.4688 21.7882 44.5298 21.1865C44.6558 21.1151 44.785 21.0418 44.9177 20.9661C46.1522 20.2617 47.5652 19.4058 49.1524 17.9178C51.6811 15.5471 52.5195 13.141 52.4183 10.8649C52.3222 8.70243 51.3733 6.80344 50.6957 5.44734L50.6834 5.42279C50.5665 5.18871 50.5784 4.98267 50.6549 4.81144C50.7362 4.62942 50.9165 4.43597 51.2193 4.32429L54.3465 3.17063Z" fill="#FDFDFC"/>
<path d="M53.5068 36.1951C53.9961 35.0128 55.6816 35.0128 56.1708 36.1951L56.5829 37.1908C56.7291 37.5442 57.0116 37.8248 57.3673 37.9701L58.3696 38.3794C59.5598 38.8654 59.5598 40.5399 58.3696 41.0259L57.3673 41.4352C57.0116 41.5805 56.7291 41.8611 56.5829 42.2145L56.1708 43.2102C55.6816 44.3925 53.9961 44.3925 53.5068 43.2102L53.0948 42.2145C52.9485 41.8611 52.6661 41.5805 52.3103 41.4352L51.308 41.0259C50.1179 40.5399 50.1179 38.8654 51.308 38.3794L52.3103 37.9701C52.6661 37.8248 52.9485 37.5442 53.0948 37.1908L53.5068 36.1951Z" fill="#FDFDFC"/>
<path d="M47.7471 55.7233C49.1351 54.8717 51.2041 53.7749 53.4022 53.193C55.6145 52.6074 57.7613 52.592 59.4966 53.6221C61.5879 54.8636 63.2176 55.7837 64.9459 56.0852C66.7434 56.3989 68.492 56.0274 70.8121 55.1417C71.4621 54.8935 72.1583 55.0796 72.5508 55.5564L74.804 58.2936C75.3643 58.9742 75.1328 59.8193 74.5579 60.12C70.3801 62.3053 65.1021 63.1958 59.3314 59.374C57.9402 58.4526 56.3732 58.3923 54.9717 58.6819C53.5819 58.9691 52.2458 59.6185 51.1492 60.2784C50.0602 60.9338 48.7393 60.4874 48.3706 59.6275L47.339 57.2215C47.0772 56.6108 47.2905 56.0035 47.7471 55.7233Z" fill="#FDFDFC"/>
</svg>
