<svg width="81" height="81" viewBox="0 0 81 81" fill="none" xmlns="http://www.w3.org/2000/svg">
<path fill-rule="evenodd" clip-rule="evenodd" d="M73.9777 18.5163C73.4639 18.8356 73.0263 19.263 72.6951 19.7684C77.554 27.4797 76.8446 38.0917 70.5667 44.9559L70.5511 44.973L48.4652 67.3847C46.4222 69.4579 43.375 69.25 40.875 69.25C37.8481 69.25 35.3278 69.4579 33.2848 67.3846L30.0909 64.1435C28.7118 65.7813 26.5 65.5 24.625 65.5C22.75 65.5 19.5865 65.6737 18.5228 63.0861L17.9323 61.6498C17.8005 61.3291 17.5459 61.0745 17.2252 60.9427L15.7889 60.3522C12.5704 59.0291 12.5704 54.4709 15.7889 53.1477L17.2252 52.5573C17.5459 52.4255 17.8005 52.1709 17.9323 51.8502L17.9454 51.8183L11.1989 44.9719L11.1833 44.9548C4.10558 37.2157 4.10558 24.7127 11.1833 16.9736C14.594 13.2441 18.9685 11.6275 23.375 11.7543V11.75H29.625V11.7569C33.5721 11.8704 37.5448 13.3827 40.8735 16.0279C44.2028 13.3811 48.1768 11.8679 52.125 11.7543L52.3103 11.75C52.5058 11.7465 52.7011 11.7465 52.8964 11.75H56.7047C57.0022 11.3555 57.3798 11.0044 57.8375 10.72L59.0223 9.98373C59.5645 9.6468 60.0218 9.18949 60.3587 8.64729L61.095 7.46248C61.908 6.15416 63.2665 5.5 64.625 5.5H68.375C69.7335 5.5 71.092 6.15416 71.905 7.46249L72.6413 8.64729C72.9782 9.18949 73.4355 9.6468 73.9777 9.98373L75.1625 10.72C77.7792 12.346 77.7792 16.154 75.1625 17.78L73.9777 18.5163Z" fill="#D24419"/>
<path d="M67.8095 61.2978C68.2467 60.2341 69.7533 60.2341 70.1905 61.2978L71.0457 63.3781C71.1765 63.6961 71.4289 63.9485 71.7469 64.0792L73.8272 64.9344C74.8909 65.3717 74.8909 66.8782 73.8272 67.3155L71.7469 68.1707C71.4289 68.3014 71.1765 68.5539 71.0457 68.8718L70.1905 70.9521C69.7533 72.0158 68.2467 72.0158 67.8095 70.9521L66.9543 68.8718C66.8235 68.5539 66.5711 68.3014 66.2531 68.1707L64.1728 67.3155C63.1091 66.8782 63.1091 65.3717 64.1728 64.9344L66.2531 64.0792C66.5711 63.9485 66.8235 63.6961 66.9543 63.3781L67.8095 61.2978Z" fill="#D24419"/>
<path d="M7.79925 5.05463C8.24029 3.98179 9.75971 3.98179 10.2007 5.05463L10.6851 6.23277C10.8169 6.55345 11.0715 6.80807 11.3922 6.9399L12.5704 7.42422C13.6432 7.86526 13.6432 9.38467 12.5704 9.8257L11.3922 10.31C11.0715 10.4418 10.8169 10.6965 10.6851 11.0171L10.2007 12.1953C9.75971 13.2681 8.24029 13.2681 7.79925 12.1953L7.31492 11.0171C7.18309 10.6965 6.92847 10.4418 6.60779 10.31L5.42963 9.8257C4.35679 9.38467 4.35679 7.86525 5.42964 7.42422L6.60779 6.9399C6.92847 6.80807 7.1831 6.55345 7.31492 6.23277L7.79925 5.05463Z" fill="#D24419"/>
<path d="M9.03042 68.8172C9.47837 67.7276 11.0216 67.7276 11.4696 68.8172L11.5774 69.0794C11.7113 69.4051 11.9699 69.6637 12.2956 69.7976L12.5577 69.9054C13.6474 70.3533 13.6474 71.8966 12.5577 72.3445L12.2956 72.4523C11.9699 72.5862 11.7113 72.8448 11.5774 73.1705L11.4696 73.4327C11.0216 74.5223 9.47837 74.5223 9.03042 73.4327L8.92264 73.1705C8.78875 72.8448 8.53013 72.5862 8.20442 72.4523L7.94225 72.3445C6.85258 71.8966 6.85258 70.3533 7.94225 69.9054L8.20442 69.7976C8.53013 69.6637 8.78875 69.4051 8.92264 69.0794L9.03042 68.8172Z" fill="#D24419"/>
<path d="M68.375 22.9393L64.625 22.9393C63.2665 22.9393 61.908 22.2895 61.095 20.9899L60.3587 19.8129C60.0218 19.2743 59.5645 18.8201 59.0223 18.4854L57.8375 17.754C56.6251 17.0057 55.9744 15.7919 55.8855 14.5441C52.489 15.2296 49.1713 17.1001 46.5055 20.0135L45.669 20.9277L49.0697 24.8493C49.5202 25.3689 49.4615 26.1529 48.9384 26.6005C48.4154 27.048 47.6261 26.9896 47.1755 26.4701L43.0638 21.7285L41.4945 20.0135C35.2111 13.1465 25.3058 12.0733 19.2833 18.6552C13.0774 25.4375 13.0723 36.4748 19.2679 43.264L24.7289 48.8029C26.6225 47.3333 29.6828 47.8681 30.7272 50.4074L31.3177 51.8429C31.4495 52.1634 31.7041 52.4179 32.0248 52.5496L33.4611 53.1398C36.0398 54.1993 36.5525 57.3345 34.9989 59.2193L41.3209 65.6314C42.7914 67.1229 45.2086 67.1229 46.6791 65.6314L68.7321 43.264C74.0027 37.4884 74.7859 28.6387 71.0818 21.9494C70.3111 22.6093 69.3431 22.9393 68.375 22.9393Z" fill="white"/>
<path d="M68.375 22.9393L64.625 22.9393C63.2665 22.9393 61.908 22.2895 61.095 20.9899L60.3587 19.8129C60.0218 19.2743 59.5645 18.8201 59.0223 18.4854L57.8375 17.754C56.6251 17.0057 55.9744 15.7919 55.8855 14.5441C52.489 15.2296 49.1713 17.1001 46.5055 20.0135L45.669 20.9277L49.0697 24.8493C49.5202 25.3689 49.4615 26.1529 48.9384 26.6005C48.4154 27.048 47.6261 26.9896 47.1755 26.4701L43.0638 21.7285L41.4945 20.0135C35.2111 13.1465 25.3058 12.0733 19.2833 18.6552C13.0774 25.4375 13.0723 36.4748 19.2679 43.264L24.7289 48.8029C26.6225 47.3333 29.6828 47.8681 30.7272 50.4074L31.3177 51.8429C31.4495 52.1634 31.7041 52.4179 32.0248 52.5496L33.4611 53.1398C36.0398 54.1993 36.5525 57.3345 34.9989 59.2193L41.3209 65.6314C42.7914 67.1229 45.2086 67.1229 46.6791 65.6314L68.7321 43.264C74.0027 37.4884 74.7859 28.6387 71.0818 21.9494C70.3111 22.6093 69.3431 22.9393 68.375 22.9393Z" fill="#FFF3DA"/>
<path d="M70.5137 9.97125L69.7769 8.78558C69.126 7.73814 67.6016 7.73814 66.9507 8.78557L66.2138 9.97125C65.6743 10.8394 64.9421 11.5717 64.0739 12.1111L62.8881 12.8479C61.8407 13.4988 61.8407 15.0232 62.8881 15.674L64.0739 16.4108C64.9421 16.9503 65.6743 17.6825 66.2138 18.5507L66.9507 19.7364C67.6016 20.7838 69.126 20.7838 69.7769 19.7364L70.5137 18.5507C71.0532 17.6825 71.7855 16.9503 72.6537 16.4108L73.8394 15.674C74.8869 15.0232 74.8869 13.4988 73.8394 12.8479L72.6537 12.1111C71.7855 11.5717 71.0532 10.8394 70.5137 9.97125Z" fill="white"/>
<path d="M28.2425 51.4774C27.8006 50.4027 26.2785 50.4027 25.8367 51.4774L25.2452 52.9162C24.849 53.88 24.0837 54.6452 23.1199 55.0414L21.6811 55.6328C20.6063 56.0746 20.6063 57.5967 21.6811 58.0385L23.1199 58.63C24.0837 59.0262 24.849 59.7914 25.2452 60.7552L25.8366 62.1939C26.2785 63.2687 27.8006 63.2687 28.2425 62.1939L28.834 60.7552C29.2302 59.7914 29.9954 59.0262 30.9592 58.63L32.398 58.0385C33.4728 57.5967 33.4728 56.0746 32.398 55.6328L30.9592 55.0414C29.9954 54.6452 29.2302 53.88 28.834 52.9162L28.2425 51.4774Z" fill="white"/>
</svg>
