<svg width="81" height="81" viewBox="0 0 81 81" fill="none" xmlns="http://www.w3.org/2000/svg">
<g clip-path="url(#clip0_609_640)">
<path d="M57.963 1.05463C58.3898 -0.0182095 59.8602 -0.0182089 60.287 1.05463L60.7557 2.23277C60.8833 2.55345 61.1297 2.80807 61.44 2.9399L62.5802 3.42422C63.6184 3.86526 63.6184 5.38467 62.5802 5.8257L61.44 6.31002C61.1297 6.44185 60.8833 6.69647 60.7557 7.01715L60.287 8.19529C59.8602 9.26813 58.3898 9.26813 57.963 8.19529L57.4943 7.01715C57.3667 6.69647 57.1203 6.44185 56.81 6.31002L55.6698 5.8257C54.6316 5.38467 54.6316 3.86525 55.6698 3.42422L56.81 2.9399C57.1203 2.80807 57.3667 2.55345 57.4943 2.23277L57.963 1.05463Z" fill="#008291"/>
<path d="M9.47068 2.29779C9.0475 1.23407 7.5896 1.23407 7.16642 2.29779L6.33879 4.37811C6.2123 4.69607 5.96799 4.94852 5.66029 5.07923L3.64706 5.93443C2.61765 6.37171 2.61765 7.87821 3.64706 8.31549L5.66029 9.17069C5.96799 9.3014 6.2123 9.55386 6.33879 9.87181L7.16642 11.9521C7.5896 13.0158 9.0475 13.0158 9.47068 11.9521L10.2983 9.87181C10.4248 9.55386 10.6691 9.3014 10.9768 9.17069L12.99 8.31549C14.0194 7.87821 14.0194 6.37171 12.99 5.93443L10.9768 5.07923C10.6691 4.94852 10.4248 4.69607 10.2983 4.37812L9.47068 2.29779Z" fill="#008291"/>
<path d="M16.1815 20.25V21.5H12.5524C9.88007 21.5 7.71371 23.7386 7.71371 26.5V69C7.71371 71.7614 9.88008 74 12.5524 74H68.1976C70.8699 74 73.0363 71.7614 73.0363 69V26.5C73.0363 23.7386 70.8699 21.5 68.1976 21.5H59.5954L56.2738 15.3218C55.4204 13.7345 53.8013 12.75 52.044 12.75H40.8028C40.755 12.75 40.7073 12.7507 40.6598 12.7522C40.6121 12.7507 40.5644 12.75 40.5165 12.75H28.706C26.9754 12.75 25.3787 13.7048 24.5155 15.25H21.0202C18.3478 15.25 16.1815 17.4886 16.1815 20.25Z" fill="#008291"/>
<path d="M76.031 11.0672C75.5975 9.97759 74.1041 9.97759 73.6706 11.0672L73.5663 11.3294C73.4367 11.6551 73.1864 11.9137 72.8712 12.0476L72.6175 12.1554C71.563 12.6033 71.563 14.1466 72.6175 14.5945L72.8712 14.7023C73.1864 14.8362 73.4367 15.0948 73.5663 15.4205L73.6706 15.6827C74.1041 16.7723 75.5975 16.7723 76.031 15.6827L76.1353 15.4205C76.2649 15.0948 76.5152 14.8362 76.8304 14.7023L77.0841 14.5945C78.1386 14.1466 78.1386 12.6033 77.0841 12.1554L76.8304 12.0476C76.5152 11.9137 76.2649 11.6551 76.1353 11.3294L76.031 11.0672Z" fill="#008291"/>
<path fill-rule="evenodd" clip-rule="evenodd" d="M64.125 48.375C64.125 55.7209 58.4334 61.5 51.625 61.5C44.8166 61.5 39.125 55.7209 39.125 48.375C39.125 41.0291 44.8166 35.25 51.625 35.25C58.4334 35.25 64.125 41.0291 64.125 48.375ZM60.375 48.375C60.375 53.5527 56.4575 57.75 51.625 57.75C46.7925 57.75 42.875 53.5527 42.875 48.375C42.875 43.1973 46.7925 39 51.625 39C56.4575 39 60.375 43.1973 60.375 48.375Z" fill="white"/>
<path d="M51.625 64C59.9093 64 66.625 57.0045 66.625 48.375C66.625 45.908 66.0762 43.5746 65.0987 41.5H69.125C69.8154 41.5 70.375 42.0596 70.375 42.75V69C70.375 70.3807 69.2557 71.5 67.875 71.5H24.125C22.7443 71.5 21.625 70.3807 21.625 69V42.75C21.625 42.0596 22.1846 41.5 22.875 41.5H31.9013C30.9238 43.5746 30.375 45.908 30.375 48.375C30.375 57.0045 37.0907 64 45.375 64H51.625Z" fill="white"/>
<path fill-rule="evenodd" clip-rule="evenodd" d="M64.125 48.375C64.125 55.7209 58.4334 61.5 51.625 61.5C44.8166 61.5 39.125 55.7209 39.125 48.375C39.125 41.0291 44.8166 35.25 51.625 35.25C58.4334 35.25 64.125 41.0291 64.125 48.375ZM60.375 48.375C60.375 53.5527 56.4575 57.75 51.625 57.75C46.7925 57.75 42.875 53.5527 42.875 48.375C42.875 43.1973 46.7925 39 51.625 39C56.4575 39 60.375 43.1973 60.375 48.375Z" fill="#FFF3DA"/>
<path d="M51.625 64C59.9093 64 66.625 57.0045 66.625 48.375C66.625 45.908 66.0762 43.5746 65.0987 41.5H69.125C69.8154 41.5 70.375 42.0596 70.375 42.75V69C70.375 70.3807 69.2557 71.5 67.875 71.5H24.125C22.7443 71.5 21.625 70.3807 21.625 69V42.75C21.625 42.0596 22.1846 41.5 22.875 41.5H31.9013C30.9238 43.5746 30.375 45.908 30.375 48.375C30.375 57.0045 37.0907 64 45.375 64H51.625Z" fill="#FFF3DA"/>
<path d="M51.183 15.25H39.567C38.6591 15.25 37.8226 15.7422 37.3816 16.5359L34.6238 21.5H56.1262L53.3684 16.5359C52.9275 15.7422 52.0909 15.25 51.183 15.25Z" fill="white"/>
<path d="M24.125 24H67.875C69.2557 24 70.375 25.1193 70.375 26.5V37.75C70.375 38.4404 69.8154 39 69.125 39H63.6261C60.8895 35.2049 56.5325 32.75 51.625 32.75H45.375C40.4675 32.75 36.1105 35.2049 33.3739 39H22.875C22.1846 39 21.625 38.4404 21.625 37.75V26.5C21.625 25.1193 22.7443 24 24.125 24Z" fill="white"/>
<path d="M53.0673 54C52.5637 54 52.5064 53.332 52.8991 53.0167C54.162 52.0031 54.9904 50.3022 54.9904 48.375C54.9904 46.4478 54.162 44.7469 52.8991 43.7333C52.5063 43.418 52.5637 42.75 53.0673 42.75C55.7225 42.75 57.875 45.2684 57.875 48.375C57.875 51.4816 55.7225 54 53.0673 54Z" fill="white"/>
<path d="M27.875 17.75H24.125C22.7443 17.75 21.625 18.8693 21.625 20.25V21.5H29.125C29.8154 21.5 30.375 20.9404 30.375 20.25C30.375 18.8693 29.2557 17.75 27.875 17.75Z" fill="white"/>
</g>
<defs>
<clipPath id="clip0_609_640">
<rect width="80" height="80" fill="white" transform="translate(0.375 0.25)"/>
</clipPath>
</defs>
</svg>
