<svg width="76" height="76" viewBox="0 0 76 76" fill="none" xmlns="http://www.w3.org/2000/svg">
<path d="M11.4219 7.35938H65.3281C67.2266 7.35938 68.7656 8.8984 68.7656 10.7969V64.7031C68.7656 66.6016 67.2266 68.1406 65.3281 68.1406H11.4219C9.5234 68.1406 7.98438 66.6016 7.98438 64.7031V10.7969C7.98438 8.8984 9.5234 7.35938 11.4219 7.35938Z" fill="#008291" stroke="#008291" stroke-width="2.5" stroke-linejoin="round"/>
<path fill-rule="evenodd" clip-rule="evenodd" d="M25.1932 9C23.9066 9 22.8636 10.0521 22.8636 11.35V65.4C22.8636 66.6979 23.9066 67.75 25.1932 67.75H64.7955C66.082 67.75 67.125 66.6979 67.125 65.4V11.35C67.125 10.0521 66.082 9 64.7955 9H25.1932ZM47.3239 31.325C47.3239 30.1042 46.7086 29.0283 45.7739 28.3956C45.2955 28.826 44.9943 29.4525 44.9943 30.15C44.9943 30.7989 44.4728 31.325 43.8295 31.325H31.849C30.7462 31.325 29.8523 30.4232 29.8523 29.3107C29.8523 22.636 35.2161 17.225 41.8328 17.225H48.4886C56.2081 17.225 62.4659 23.5378 62.4659 31.325C62.4659 39.1122 56.2081 45.425 48.4886 45.425C48.4886 47.3718 46.9242 48.95 44.9943 48.95H36.8409C34.9111 48.95 33.3466 47.3718 33.3466 45.425V41.9C33.3466 38.0064 36.4755 34.85 40.3352 34.85H43.8295C45.7594 34.85 47.3239 33.2718 47.3239 31.325ZM45.3617 52.4859C44.8747 51.6953 44.0609 51.3 43.2472 51.3H38.5881C37.7743 51.3 36.9605 51.6953 36.4735 52.4859L36.0325 53.2019C35.8306 53.5295 35.5567 53.8058 35.2319 54.0094L34.5222 54.4544C32.9547 55.4369 32.9547 57.7381 34.5222 58.7206L35.2319 59.1655C35.5567 59.3691 35.8306 59.6455 36.0325 59.9731L36.4735 60.6891C36.9605 61.4797 37.7743 61.875 38.5881 61.875H43.2472C44.0609 61.875 44.8747 61.4797 45.3617 60.6891L45.8028 59.9731C46.0046 59.6455 46.2785 59.3691 46.6033 59.1655L47.3131 58.7206C48.8805 57.7381 48.8805 55.4369 47.3131 54.4544L46.6033 54.0094C46.2785 53.8058 46.0046 53.5295 45.8028 53.2019L45.3617 52.4859Z" fill="white"/>
<path d="M15.875 11.35C15.875 10.0521 16.918 9 18.2045 9C19.4911 9 20.5341 10.0521 20.5341 11.35V65.4C20.5341 66.6979 19.4911 67.75 18.2045 67.75C16.918 67.75 15.875 66.6979 15.875 65.4V11.35Z" fill="white"/>
<path fill-rule="evenodd" clip-rule="evenodd" d="M25.1932 9C23.9066 9 22.8636 10.0521 22.8636 11.35V65.4C22.8636 66.6979 23.9066 67.75 25.1932 67.75H64.7955C66.082 67.75 67.125 66.6979 67.125 65.4V11.35C67.125 10.0521 66.082 9 64.7955 9H25.1932ZM47.3239 31.325C47.3239 30.1042 46.7086 29.0283 45.7739 28.3956C45.2955 28.826 44.9943 29.4525 44.9943 30.15C44.9943 30.7989 44.4728 31.325 43.8295 31.325H31.849C30.7462 31.325 29.8523 30.4232 29.8523 29.3107C29.8523 22.636 35.2161 17.225 41.8328 17.225H48.4886C56.2081 17.225 62.4659 23.5378 62.4659 31.325C62.4659 39.1122 56.2081 45.425 48.4886 45.425C48.4886 47.3718 46.9242 48.95 44.9943 48.95H36.8409C34.9111 48.95 33.3466 47.3718 33.3466 45.425V41.9C33.3466 38.0064 36.4755 34.85 40.3352 34.85H43.8295C45.7594 34.85 47.3239 33.2718 47.3239 31.325ZM45.3617 52.4859C44.8747 51.6953 44.0609 51.3 43.2472 51.3H38.5881C37.7743 51.3 36.9605 51.6953 36.4735 52.4859L36.0325 53.2019C35.8306 53.5295 35.5567 53.8058 35.2319 54.0094L34.5222 54.4544C32.9547 55.4369 32.9547 57.7381 34.5222 58.7206L35.2319 59.1655C35.5567 59.3691 35.8306 59.6455 36.0325 59.9731L36.4735 60.6891C36.9605 61.4797 37.7743 61.875 38.5881 61.875H43.2472C44.0609 61.875 44.8747 61.4797 45.3617 60.6891L45.8028 59.9731C46.0046 59.6455 46.2785 59.3691 46.6033 59.1655L47.3131 58.7206C48.8805 57.7381 48.8805 55.4369 47.3131 54.4544L46.6033 54.0094C46.2785 53.8058 46.0046 53.5295 45.8028 53.2019L45.3617 52.4859Z" fill="#FFF3DA"/>
<path d="M15.875 11.35C15.875 10.0521 16.918 9 18.2045 9C19.4911 9 20.5341 10.0521 20.5341 11.35V65.4C20.5341 66.6979 19.4911 67.75 18.2045 67.75C16.918 67.75 15.875 66.6979 15.875 65.4V11.35Z" fill="#FFF3DA"/>
<path d="M43.9601 52.9222L44.4099 53.6355C44.7921 54.2417 45.3109 54.7531 45.926 55.1298L46.6498 55.5731C46.8781 55.7129 46.8781 56.0404 46.6498 56.1803L45.926 56.6236C45.3109 57.0003 44.7921 57.5116 44.4099 58.1179L43.9601 58.8312C43.8182 59.0563 43.4859 59.0563 43.344 58.8312L42.8943 58.1179C42.5121 57.5116 41.9933 57.0003 41.3782 56.6236L40.6544 56.1803C40.4261 56.0404 40.4261 55.7129 40.6544 55.5731L41.3782 55.1298C41.9933 54.7531 42.5121 54.2417 42.8943 53.6355L43.344 52.9222C43.4859 52.6971 43.8182 52.6971 43.9601 52.9222Z" fill="white"/>
<path d="M46.6216 44.7551C46.6216 43.462 47.6851 42.4138 48.9971 42.4138C55.5571 42.4138 60.875 37.1724 60.875 30.7069C60.875 24.2414 55.5571 19 48.9971 19H46.9609C41.6391 19 37.3039 23.1632 37.125 28.3655H43.2079C43.7353 26.3458 45.5955 24.8534 47.8093 24.8534H48.9971C52.2771 24.8534 54.9361 27.4741 54.9361 30.7069C54.9361 33.9397 52.2771 36.5603 48.9971 36.5603H45.4338C42.8098 36.5603 40.6826 38.6569 40.6826 41.2431V44.7551C40.6826 45.4017 41.2144 45.9258 41.8704 45.9258H45.4338C46.0898 45.9258 46.6216 45.4017 46.6216 44.7551Z" fill="white"/>
</svg>
