<svg width="81" height="81" viewBox="0 0 81 81" fill="none" xmlns="http://www.w3.org/2000/svg">
<path fill-rule="evenodd" clip-rule="evenodd" d="M64.882 34.6622C63.4861 33.4791 61.4412 33.4791 60.0453 34.6622L50.6354 42.6373C47.9729 44.8938 49.566 49.25 53.0537 49.25H54.9758V53C54.9758 56.4518 52.1821 59.25 48.7359 59.25H30.3281C27.3989 59.25 25.0242 56.8715 25.0242 53.9375C25.0242 52.039 23.4877 50.5 21.5923 50.5H13.7924C11.7247 50.5 10.0485 52.1789 10.0485 54.25V55.5C10.0485 65.8553 18.4296 74.25 28.7682 74.25H51.2318C61.5704 74.25 69.9515 65.8553 69.9515 55.5V49.25H71.8736C75.3613 49.25 76.9544 44.8938 74.2919 42.6373L64.882 34.6622Z" fill="#008291"/>
<path fill-rule="evenodd" clip-rule="evenodd" d="M28.7682 5.5C18.4296 5.5 10.0485 13.8947 10.0485 24.25V30.5H8.12643C4.63871 30.5 3.04558 34.8562 5.70805 37.1127L15.118 45.0878C16.5139 46.2709 18.5588 46.2709 19.9547 45.0878L29.3646 37.1127C32.0271 34.8562 30.434 30.5 26.9463 30.5H25.0242V26.75C25.0242 23.2982 27.8179 20.5 31.2641 20.5H49.6719C52.6011 20.5 54.9758 22.8785 54.9758 25.8125C54.9758 27.711 56.5123 29.25 58.4077 29.25H66.2076C68.2753 29.25 69.9515 27.5711 69.9515 25.5V24.25C69.9515 13.8947 61.5704 5.5 51.2318 5.5H28.7682Z" fill="#008291"/>
<path d="M34.4435 40.0478C34.88 38.9841 36.3841 38.9841 36.8207 40.0478L37.6745 42.1281C37.805 42.4461 38.0571 42.6985 38.3745 42.8293L40.4515 43.6845C41.5135 44.1217 41.5135 45.6282 40.4515 46.0655L38.3745 46.9207C38.0571 47.0514 37.805 47.3039 37.6745 47.6219L36.8207 49.7022C36.3841 50.7659 34.88 50.7659 34.4435 49.7022L33.5896 47.6219C33.4591 47.3039 33.2071 47.0514 32.8896 46.9207L30.8127 46.0655C29.7507 45.6282 29.7507 44.1217 30.8127 43.6845L32.8896 42.8293C33.2071 42.6985 33.4591 42.4461 33.5896 42.1281L34.4435 40.0478Z" fill="#008291"/>
<path d="M44.3983 30.0673C44.8455 28.9776 46.3863 28.9776 46.8335 30.0673L46.9411 30.3294C47.0748 30.6551 47.333 30.9137 47.6582 31.0476L47.9199 31.1554C49.0078 31.6034 49.0078 33.1466 47.9199 33.5946L47.6582 33.7024C47.333 33.8362 47.0748 34.0949 46.9411 34.4206L46.8335 34.6827C46.3863 35.7724 44.8455 35.7724 44.3983 34.6827L44.2907 34.4206C44.157 34.0949 43.8988 33.8362 43.5736 33.7024L43.3119 33.5946C42.224 33.1466 42.224 31.6034 43.3119 31.1554L43.5736 31.0476C43.8988 30.9137 44.157 30.6551 44.2907 30.3294L44.3983 30.0673Z" fill="#008291"/>
<path d="M63.1605 37.0418C62.69 36.6527 62.0007 36.6527 61.5302 37.0418L52.015 44.9101C51.1176 45.6522 51.6546 47.0848 52.8302 47.0848H56.0357C56.7326 47.0848 57.2976 47.637 57.2976 48.3181V53.2511C57.2976 58.0189 53.3427 61.8839 48.464 61.8839H13.1296L13.125 61.8839C15.5973 67.6777 21.4485 71.75 28.2729 71.75H50.9879C60.0482 71.75 67.3931 64.5721 67.3931 55.7176V48.3181C67.3931 47.637 67.9581 47.0848 68.6551 47.0848H71.8605C73.0361 47.0848 73.5731 45.6522 72.6757 44.9101L63.1605 37.0418Z" fill="#FFF3DA"/>
<path d="M29.0121 8C19.9518 8 12.6069 15.1779 12.6069 24.0324V31.4319C12.6069 32.113 12.0419 32.6652 11.3449 32.6652H8.13946C6.96389 32.6652 6.4269 34.0978 7.32432 34.8399L16.8395 42.7082C17.31 43.0973 17.9993 43.0973 18.4698 42.7082L27.985 34.8399C28.8824 34.0978 28.3454 32.6652 27.1698 32.6652H23.9644C23.2674 32.6652 22.7024 32.113 22.7024 31.4319V26.4989C22.7024 21.7311 26.6573 17.8661 31.536 17.8661H66.8704L66.875 17.8661C64.4027 12.0723 58.5515 8 51.7271 8H29.0121Z" fill="white"/>
</svg>
