<svg width="109" height="107" viewBox="0 0 109 107" fill="none" xmlns="http://www.w3.org/2000/svg">
<path d="M6.55946 28.2978C6.99675 27.2341 8.50325 27.2341 8.94054 28.2978L9.79575 30.3781C9.92645 30.6961 10.1789 30.9485 10.4969 31.0792L12.5772 31.9344C13.6409 32.3717 13.6409 33.8782 12.5772 34.3155L10.4969 35.1707C10.1789 35.3014 9.92645 35.5539 9.79575 35.8718L8.94054 37.9521C8.50325 39.0158 6.99675 39.0158 6.55946 37.9521L5.70425 35.8718C5.57355 35.5539 5.32109 35.3014 5.00313 35.1707L2.92279 34.3155C1.85907 33.8782 1.85907 32.3717 2.92279 31.9344L5.00314 31.0792C5.32109 30.9485 5.57355 30.6961 5.70425 30.3781L6.55946 28.2978Z" fill="#008291"/>
<path d="M72.7804 32.0672C73.2284 30.9776 74.7716 30.9776 75.2196 32.0672L75.3274 32.3294C75.4613 32.6551 75.7199 32.9137 76.0456 33.0476L76.3077 33.1554C77.3974 33.6033 77.3974 35.1466 76.3077 35.5945L76.0456 35.7023C75.7199 35.8362 75.4613 36.0948 75.3274 36.4205L75.2196 36.6827C74.7716 37.7723 73.2284 37.7723 72.7804 36.6827L72.6726 36.4205C72.5387 36.0948 72.2801 35.8362 71.9544 35.7023L71.6923 35.5945C70.6026 35.1466 70.6026 33.6033 71.6923 33.1554L71.9544 33.0476C72.2801 32.9137 72.5387 32.6551 72.6726 32.3294L72.7804 32.0672Z" fill="#008291"/>
<rect x="7.125" y="42.5" width="66.25" height="57.5" rx="3.75" fill="#008291"/>
<path d="M18.375 85H70.875V47.5C70.875 46.1193 69.7557 45 68.375 45H20.875C19.4943 45 18.375 46.1193 18.375 47.5V85Z" fill="white"/>
<path d="M18.375 85H70.875V47.5C70.875 46.1193 69.7557 45 68.375 45H20.875C19.4943 45 18.375 46.1193 18.375 47.5V85Z" fill="#FFF3DA"/>
<path d="M40.5377 70H49.3075C55.0451 70 59.7916 76.8462 60.5811 82.5H29.2641C30.0536 76.8462 34.8002 70 40.5377 70Z" fill="#008291"/>
<path d="M52.244 57.5C52.244 61.6421 48.9661 65 44.9226 65C40.8791 65 37.6012 61.6421 37.6012 57.5C37.6012 53.3579 40.8791 50 44.9226 50C48.9661 50 52.244 53.3579 52.244 57.5Z" fill="#008291"/>
<path fill-rule="evenodd" clip-rule="evenodd" d="M73.375 55H67.1255C67.1253 55 67.1252 55 67.125 55C65.765 55 64.4049 55.6549 63.591 56.9647L62.8555 58.1483C62.5196 58.6888 62.0638 59.1446 61.5233 59.4805L61.5233 59.4805L60.3397 60.216L60.3397 60.216C57.7201 61.8438 57.7201 65.6562 60.3397 67.284L61.5233 68.0195L62.8428 65.8961L61.5233 68.0195C62.0638 68.3554 62.5196 68.8112 62.8555 69.3517L64.8397 68.1187L62.8555 69.3517L63.591 70.5353C64.4049 71.8451 65.765 72.5 67.125 72.5C67.1262 72.5 67.1273 72.5 67.1285 72.5H73.375V67.6166L73.9103 67.284C76.5299 65.6562 76.5299 61.8438 73.9103 60.216L73.375 59.8834V55Z" fill="#008291"/>
<path d="M74.3384 59.426L75.3328 58.808C75.77 59.5116 76.3634 60.105 77.067 60.5422L78.2506 61.2777C80.0831 62.4165 80.0832 65.0835 78.2506 66.2223L77.067 66.9578C76.3634 67.395 75.77 67.9884 75.3328 68.692L74.5973 69.8756C73.4585 71.7081 70.7915 71.7082 69.6527 69.8756M74.3384 59.426L69.6527 69.8756M74.3384 59.426L75.3328 58.808L74.5973 57.6244C73.4585 55.7919 70.7915 55.7919 69.6527 57.6244L68.9172 58.808C68.48 59.5116 67.8866 60.105 67.183 60.5422L67.183 60.5422L65.9994 61.2777C65.9994 61.2777 65.9994 61.2777 65.9994 61.2777C64.1668 62.4165 64.1669 65.0835 65.9994 66.2223L67.183 66.9578L67.7889 65.9828L67.183 66.9578C67.8866 67.395 68.48 67.9884 68.9172 68.692L69.9789 68.0322M74.3384 59.426L69.9789 68.0322M69.6527 69.8756L68.9172 68.692L69.9789 68.0322M69.6527 69.8756L69.9789 68.0322" fill="white" stroke="#008291" stroke-width="2.5" stroke-linejoin="round"/>
<rect width="52.5" height="10" transform="matrix(1 0 0 -1 18.375 97.5)" fill="white"/>
</svg>
