<svg width="76" height="76" viewBox="0 0 76 76" fill="none" xmlns="http://www.w3.org/2000/svg">
<path fill-rule="evenodd" clip-rule="evenodd" d="M42.5789 72.75H49.5703V72.7392C50.5466 72.7338 51.5371 72.5219 52.4964 72.0605C54.5576 71.0694 55.6824 69.2279 56.0255 67.2393C56.3644 65.2745 55.9568 63.1259 54.9508 61.3099L54.1959 59.9469C52.7111 57.2659 51.0983 54.3537 49.9605 52.3186C51.7622 52.3789 53.4418 51.9713 54.8988 51.1095C56.8281 49.9683 58.2563 48.0963 59.0645 45.7131C61.2437 45.4289 63.0924 44.943 64.5712 44.0241C66.2916 42.955 67.3915 41.3779 68.0205 39.2004C68.6734 36.9402 68.018 34.6551 66.9886 32.8386L56.5109 14.348L55.6409 12.6125C53.7631 8.86635 49.9245 5.25 45.7256 5.25H27.875L10.1083 5.25003C6.62265 5.25003 4.33561 10.1345 5.85101 13.2656L9.74106 21.3031C10.7366 23.36 12.7184 24.5996 14.8285 24.7593C12.1931 28.1518 10.6976 32.3707 10.6976 36.8021L10.6977 44.8525C10.6977 48.0987 13.3359 50.7303 16.5903 50.7303L24.7684 50.7303L35.0488 68.4423C36.5696 71.0624 39.5352 72.9194 42.5789 72.7255V72.75Z" fill="#D24419"/>
<path d="M18.7375 66.1904C19.1486 67.188 20.565 67.188 20.9761 66.1904L21.4276 65.095C21.5505 64.7968 21.7879 64.56 22.0868 64.4374L23.1851 63.9871C24.1851 63.577 24.1851 62.1642 23.1851 61.7542L22.0868 61.3038C21.7879 61.1812 21.5505 60.9445 21.4276 60.6463L20.9761 59.5508C20.565 58.5533 19.1486 58.5533 18.7375 59.5508L18.286 60.6463C18.1631 60.9445 17.9257 61.1812 17.6268 61.3038L16.5285 61.7542C15.5285 62.1642 15.5285 63.577 16.5286 63.9871L17.6268 64.4374C17.9257 64.56 18.1631 64.7968 18.286 65.095L18.7375 66.1904Z" fill="#D24419"/>
<path d="M66.5216 70.8459C66.9293 71.835 68.3336 71.835 68.7412 70.8459L69.5385 68.9116C69.6603 68.6159 69.8956 68.3812 70.192 68.2597L72.1313 67.4645C73.1229 67.0579 73.1229 65.6571 72.1313 65.2505L70.192 64.4553C69.8956 64.3338 69.6603 64.099 69.5385 63.8034L68.7412 61.869C68.3336 60.88 66.9293 60.88 66.5216 61.869L65.7244 63.8034C65.6026 64.099 65.3672 64.3338 65.0708 64.4553L63.1316 65.2505C62.14 65.6571 62.14 67.0579 63.1316 67.4645L65.0708 68.2597C65.3672 68.3812 65.6026 68.6159 65.7244 68.9116L66.5216 70.8459Z" fill="#D24419"/>
<path d="M66.4946 17.3628C66.9121 18.376 68.3507 18.376 68.7683 17.3628L68.8688 17.119C68.9936 16.8162 69.2347 16.5757 69.5383 16.4512L69.7827 16.351C70.7985 15.9345 70.7985 14.4996 69.7827 14.0831L69.5383 13.9828C69.2347 13.8583 68.9936 13.6179 68.8688 13.315L68.7683 13.0713C68.3507 12.0581 66.9121 12.0581 66.4946 13.0713L66.3941 13.315C66.2693 13.6179 66.0282 13.8583 65.7246 13.9828L65.4802 14.0831C64.4644 14.4996 64.4644 15.9345 65.4802 16.351L65.7246 16.4512C66.0282 16.5757 66.2693 16.8162 66.3941 17.119L66.4946 17.3628Z" fill="#D24419"/>
<path d="M20.375 44.6158C20.375 46.521 21.9013 48.0654 23.7841 48.0654H30.4704L28.4774 44.6644C28.1325 44.0758 28.3244 43.3157 28.9061 42.9667C29.4878 42.6176 30.239 42.8118 30.5839 43.4005L33.6735 48.6725L44.2537 67.1646C45.7263 69.7384 48.7356 70.9613 51.0688 69.8231C52.2875 69.2286 52.9966 68.1289 53.2272 66.7728C53.4619 65.3928 53.1832 63.7933 52.4288 62.4118L51.6833 61.0462C49.5096 57.0647 47.0794 52.6131 46.2734 51.1974L45.071 49.3723C44.6958 48.8029 44.8479 48.0336 45.4106 47.654C45.9733 47.2744 46.7335 47.4282 47.1087 47.9976L48.069 49.4552C50.1243 49.9164 51.8891 49.6241 53.2715 48.7945C54.6472 47.969 55.7614 46.5408 56.3988 44.5153L55.1188 42.3171C54.7755 41.7275 54.9696 40.9679 55.5523 40.6205C56.1349 40.2732 56.8856 40.4695 57.2289 41.0591L58.3722 43.0227C60.3716 42.7555 61.8009 42.3328 62.8414 41.677C63.9519 40.9769 64.724 39.9437 65.2121 38.2295C65.6123 36.824 65.2491 35.2256 64.4076 33.7191L52.3533 12.1388C51.3487 10.3404 49.0878 9.71575 47.3195 10.7481L28.9513 21.4711C23.6445 24.5691 20.375 30.2973 20.375 36.4968L20.375 44.6158Z" fill="white"/>
<path d="M20.375 44.6158C20.375 46.521 21.9013 48.0654 23.7841 48.0654H30.4704L28.4774 44.6644C28.1325 44.0758 28.3244 43.3157 28.9061 42.9667C29.4878 42.6176 30.239 42.8118 30.5839 43.4005L33.6735 48.6725L44.2537 67.1646C45.7263 69.7384 48.7356 70.9613 51.0688 69.8231C52.2875 69.2286 52.9966 68.1289 53.2272 66.7728C53.4619 65.3928 53.1832 63.7933 52.4288 62.4118L51.6833 61.0462C49.5096 57.0647 47.0794 52.6131 46.2734 51.1974L45.071 49.3723C44.6958 48.8029 44.8479 48.0336 45.4106 47.654C45.9733 47.2744 46.7335 47.4282 47.1087 47.9976L48.069 49.4552C50.1243 49.9164 51.8891 49.6241 53.2715 48.7945C54.6472 47.969 55.7614 46.5408 56.3988 44.5153L55.1188 42.3171C54.7755 41.7275 54.9696 40.9679 55.5523 40.6205C56.1349 40.2732 56.8856 40.4695 57.2289 41.0591L58.3722 43.0227C60.3716 42.7555 61.8009 42.3328 62.8414 41.677C63.9519 40.9769 64.724 39.9437 65.2121 38.2295C65.6123 36.824 65.2491 35.2256 64.4076 33.7191L52.3533 12.1388C51.3487 10.3404 49.0878 9.71575 47.3195 10.7481L28.9513 21.4711C23.6445 24.5691 20.375 30.2973 20.375 36.4968L20.375 44.6158Z" fill="#FFF3DA"/>
<path d="M18.9746 19.3551C19.9337 21.3435 22.3802 22.0949 24.2885 20.9871L45.0592 8.92899C45.6176 8.60483 45.3879 7.75 44.7424 7.75L15.3897 7.75C14.4584 7.75 13.8473 8.72447 14.2522 9.56397L18.9746 19.3551Z" fill="white"/>
</svg>
