<svg width="81" height="81" viewBox="0 0 81 81" fill="none" xmlns="http://www.w3.org/2000/svg">
<path d="M16.625 12C11.1022 12 6.625 16.4772 6.625 22V53.25C6.625 58.7728 11.1022 63.25 16.625 63.25H29.125V75.75C29.125 77.8211 30.8039 79.5 32.875 79.5H49.125C51.1961 79.5 52.875 77.8211 52.875 75.75V64.5C52.875 64.0617 52.7998 63.641 52.6616 63.25H64.125C69.6478 63.25 74.125 58.7728 74.125 53.25V22C74.125 16.4772 69.6478 12 64.125 12H16.625Z" fill="#008291"/>
<path d="M7.30946 67.7978C7.74675 66.7341 9.25325 66.7341 9.69054 67.7978L10.5457 69.8782C10.6765 70.1961 10.9289 70.4486 11.2469 70.5793L13.3272 71.4345C14.3909 71.8718 14.3909 73.3783 13.3272 73.8156L11.2469 74.6708C10.9289 74.8015 10.6765 75.054 10.5457 75.3719L9.69054 77.4523C9.25325 78.516 7.74675 78.516 7.30946 77.4523L6.45425 75.3719C6.32355 75.054 6.07109 74.8015 5.75313 74.6708L3.67279 73.8156C2.60907 73.3783 2.60907 71.8718 3.67279 71.4345L5.75314 70.5793C6.07109 70.4486 6.32355 70.1961 6.45425 69.8782L7.30946 67.7978Z" fill="#008291"/>
<path d="M73.5493 1.55464C73.9903 0.481786 75.5097 0.481786 75.9507 1.55464L76.4351 2.73281C76.5669 3.05349 76.8215 3.30812 77.1422 3.43995L78.3204 3.92428C79.3932 4.36532 79.3932 5.88476 78.3204 6.3258L77.1422 6.81013C76.8215 6.94196 76.5669 7.19659 76.4351 7.51727L75.9507 8.69544C75.5097 9.76829 73.9903 9.76829 73.5493 8.69544L73.0649 7.51727C72.9331 7.19659 72.6785 6.94196 72.3578 6.81013L71.1796 6.3258C70.1068 5.88476 70.1068 4.36532 71.1796 3.92428L72.3578 3.43995C72.6785 3.30812 72.9331 3.05349 73.0649 2.73281L73.5493 1.55464Z" fill="#008291"/>
<path fill-rule="evenodd" clip-rule="evenodd" d="M64.125 14.5H24.125C19.9829 14.5 16.625 17.8579 16.625 22V53.25C16.625 57.3921 19.9829 60.75 24.125 60.75H64.125C68.2671 60.75 71.625 57.3921 71.625 53.25V22C71.625 17.8579 68.2671 14.5 64.125 14.5ZM25.375 18.25C22.6136 18.25 20.375 20.4886 20.375 23.25V52C20.375 54.7614 22.6136 57 25.375 57H62.875C65.6364 57 67.875 54.7614 67.875 52V23.25C67.875 20.4886 65.6364 18.25 62.875 18.25H25.375Z" fill="white"/>
<path fill-rule="evenodd" clip-rule="evenodd" d="M64.125 14.5H24.125C19.9829 14.5 16.625 17.8579 16.625 22V53.25C16.625 57.3921 19.9829 60.75 24.125 60.75H64.125C68.2671 60.75 71.625 57.3921 71.625 53.25V22C71.625 17.8579 68.2671 14.5 64.125 14.5ZM25.375 18.25C22.6136 18.25 20.375 20.4886 20.375 23.25V52C20.375 54.7614 22.6136 57 25.375 57H62.875C65.6364 57 67.875 54.7614 67.875 52V23.25C67.875 20.4886 65.6364 18.25 62.875 18.25H25.375Z" fill="#FFF3DA"/>
<path d="M46.625 37.9872C46.625 39.3772 45.5057 40.5041 44.125 40.5041C42.7443 40.5041 41.625 39.3772 41.625 37.9872C41.625 36.5971 42.7443 35.4702 44.125 35.4702C45.5057 35.4702 46.625 36.5971 46.625 37.9872Z" fill="white"/>
<path d="M49.0138 42.5941C48.7519 42.6692 48.5618 42.2857 48.7488 42.0864C49.7591 41.009 50.375 39.5772 50.375 38.0058C50.375 36.446 49.7682 35.0237 48.7711 33.9491C48.5831 33.7465 48.782 33.3548 49.0449 33.437C51.1 34.0796 52.8385 35.0142 54.1668 35.8853C55.8123 36.9643 55.7685 39.365 54.0872 40.3731C52.7626 41.1674 51.0415 42.0124 49.0138 42.5941Z" fill="white"/>
<path d="M39.6472 42.2368C39.8411 42.43 39.6632 42.8205 39.3989 42.7525C37.7687 42.3333 36.0701 41.6626 34.323 40.6707C32.4318 39.597 32.3828 36.7157 34.2368 35.5643C36.0099 34.4631 37.7335 33.7209 39.3867 33.2591C39.6527 33.1848 39.8375 33.5846 39.6416 33.7803C38.5482 34.8725 37.875 36.3628 37.875 38.0058C37.875 39.6515 38.5505 41.1441 39.6472 42.2368Z" fill="white"/>
<path d="M39.125 63.1567H50.375V75.7415C50.375 76.4366 49.8154 77 49.125 77H40.375C39.6846 77 39.125 76.4366 39.125 75.7415V63.1567Z" fill="white"/>
</svg>
