<svg width="81" height="81" viewBox="0 0 81 81" fill="none" xmlns="http://www.w3.org/2000/svg">
<path d="M22.9616 26.4192L31.0448 14.2944C32.2361 12.5074 34.067 11.7876 35.8261 11.9115H41.2393C41.3561 11.9115 41.4722 11.9149 41.5873 11.9217C44.5196 11.6452 47.5844 13.8065 47.51 17.3776L47.625 30.4593C47.6172 30.8321 47.9153 31.1389 48.2873 31.1428H64.6707C64.6798 31.1428 64.6889 31.1428 64.698 31.1429H65.0724C68.9059 31.1429 72.6696 33.3975 73.4432 37.1521C74.0056 39.8812 73.6317 42.0646 71.9195 45.0429C71.6311 45.5445 71.676 46.1715 72.0161 46.6396C74.6222 50.2259 74.5679 53.8796 71.8531 58.5495C71.5957 58.9922 71.5947 59.5431 71.8567 59.9832C73.6538 63.0019 74.0258 64.741 73.412 67.5443C72.549 71.4863 68.6978 74 64.6625 74H31.4643C31.4577 74 31.4511 74 31.4445 74H25.1696C24.8888 74 24.5 74 24.5 74C24.5 74 23.7988 74 23.5179 74H11.7321C8.77347 74 6.375 71.6015 6.375 68.6429V36.8571C6.375 33.8985 8.77347 31.5 11.7321 31.5H20.583C21.1137 29.7063 21.9127 27.9925 22.9616 26.4192Z" fill="#D24419"/>
<path d="M12.0595 9.79779C12.4967 8.73407 14.0033 8.73407 14.4405 9.79779L15.2957 11.8781C15.4265 12.1961 15.6789 12.4485 15.9969 12.5793L18.0772 13.4345C19.1409 13.8717 19.1409 15.3783 18.0772 15.8155L15.9969 16.6707C15.6789 16.8015 15.4265 17.0539 15.2957 17.3719L14.4405 19.4522C14.0033 20.5159 12.4967 20.5159 12.0595 19.4522L11.2043 17.3719C11.0735 17.0539 10.8211 16.8015 10.5031 16.6707L8.42279 15.8155C7.35907 15.3783 7.35907 13.8717 8.42279 13.4345L10.5031 12.5793C10.8211 12.4485 11.0735 12.1961 11.2043 11.8781L12.0595 9.79779Z" fill="#D24419"/>
<path d="M57.0493 2.30463C57.4903 1.23179 59.0097 1.23179 59.4507 2.30464L59.9351 3.48279C60.0669 3.80347 60.3215 4.05809 60.6422 4.18992L61.8204 4.67425C62.8932 5.11529 62.8932 6.63471 61.8204 7.07575L60.6422 7.56008C60.3215 7.69191 60.0669 7.94653 59.9351 8.26721L59.4507 9.44537C59.0097 10.5182 57.4903 10.5182 57.0493 9.44536L56.5649 8.26721C56.4331 7.94653 56.1785 7.69191 55.8578 7.56008L54.6796 7.07575C53.6068 6.63471 53.6068 5.11529 54.6796 4.67425L55.8578 4.18992C56.1785 4.05809 56.4331 3.80347 56.5649 3.48279L57.0493 2.30463Z" fill="#D24419"/>
<path d="M67.0304 21.0673C67.4784 19.9776 69.0216 19.9776 69.4696 21.0673L69.5774 21.3294C69.7113 21.6551 69.9699 21.9137 70.2956 22.0476L70.5577 22.1554C71.6474 22.6034 71.6474 24.1466 70.5577 24.5946L70.2956 24.7024C69.9699 24.8363 69.7113 25.0949 69.5774 25.4206L69.4696 25.6827C69.0216 26.7724 67.4784 26.7724 67.0304 25.6827L66.9226 25.4206C66.7887 25.0949 66.5301 24.8363 66.2044 24.7024L65.9423 24.5946C64.8526 24.1466 64.8526 22.6034 65.9423 22.1554L66.2044 22.0476C66.5301 21.9137 66.7887 21.6551 66.9226 21.3294L67.0304 21.0673Z" fill="#D24419"/>
<path d="M39.7767 15.6812L31.6934 27.806C29.9139 30.4754 28.9642 33.6117 28.9642 36.8199V69C28.9642 70.3807 30.0835 71.5 31.4642 71.5H64.6625C67.7847 71.5 70.4101 69.5666 70.9698 67.0097C71.2275 65.8326 71.239 65.0688 71.0904 64.3519C70.9322 63.5882 70.5512 62.6776 69.7085 61.262C69.5172 60.9407 69.3766 60.5999 69.2856 60.25H67.625C66.9346 60.25 66.375 59.6904 66.375 59C66.375 58.3096 66.9346 57.75 67.625 57.75H68.9538C69.2632 57.75 69.5363 57.5605 69.6918 57.293V57.293C70.9213 55.1781 71.411 53.5228 71.4302 52.1533C71.4554 50.3432 70.3156 48.24 69.6717 47.1362C69.4421 46.7426 69.0159 46.5 68.5602 46.5H67.625C66.9346 46.5 66.375 45.9404 66.375 45.25C66.375 44.5596 66.9346 44 67.625 44H69.6431C69.6772 43.9317 69.7136 43.864 69.7521 43.7969C70.5182 42.4644 70.9079 41.4418 71.0775 40.5413C71.2432 39.6613 71.2235 38.7675 70.9946 37.6567C70.5309 35.4062 68.1081 33.6429 65.0724 33.6429H47.9069C46.1305 33.6429 44.701 32.1832 44.7379 30.4072L45.0105 17.3255C45.07 14.4684 41.3619 13.3033 39.7767 15.6812Z" fill="white"/>
<path d="M39.7767 15.6812L31.6934 27.806C29.9139 30.4754 28.9642 33.6117 28.9642 36.8199V69C28.9642 70.3807 30.0835 71.5 31.4642 71.5H64.6625C67.7847 71.5 70.4101 69.5666 70.9698 67.0097C71.2275 65.8326 71.239 65.0688 71.0904 64.3519C70.9322 63.5882 70.5512 62.6776 69.7085 61.262C69.5172 60.9407 69.3766 60.5999 69.2856 60.25H67.625C66.9346 60.25 66.375 59.6904 66.375 59C66.375 58.3096 66.9346 57.75 67.625 57.75H68.9538C69.2632 57.75 69.5363 57.5605 69.6918 57.293V57.293C70.9213 55.1781 71.411 53.5228 71.4302 52.1533C71.4554 50.3432 70.3156 48.24 69.6717 47.1362C69.4421 46.7426 69.0159 46.5 68.5602 46.5H67.625C66.9346 46.5 66.375 45.9404 66.375 45.25C66.375 44.5596 66.9346 44 67.625 44H69.6431C69.6772 43.9317 69.7136 43.864 69.7521 43.7969C70.5182 42.4644 70.9079 41.4418 71.0775 40.5413C71.2432 39.6613 71.2235 38.7675 70.9946 37.6567C70.5309 35.4062 68.1081 33.6429 65.0724 33.6429H47.9069C46.1305 33.6429 44.701 32.1832 44.7379 30.4072L45.0105 17.3255C45.07 14.4684 41.3619 13.3033 39.7767 15.6812Z" fill="#FFF3DA"/>
<path d="M15.125 36.5C15.125 35.1193 16.2443 34 17.625 34H23.875C25.2557 34 26.375 35.1193 26.375 36.5V69C26.375 70.3807 25.2557 71.5 23.875 71.5H17.625C16.2443 71.5 15.125 70.3807 15.125 69V36.5Z" fill="white"/>
</svg>
