<svg width="200" height="200" viewBox="0 0 200 200" fill="none" xmlns="http://www.w3.org/2000/svg">
<g clip-path="url(#clip0_1375_1230)">
<rect width="200" height="200" fill="white"/>
<g clip-path="url(#clip1_1375_1230)">
<rect x="16.6667" y="16.6665" width="166.667" height="166.667" rx="83.3333" fill="#AC0011"/>
<g clip-path="url(#clip2_1375_1230)">
<path d="M150.002 60.357C136.425 59.0012 134.891 61.2888 149.141 64.6915C143.096 67.1048 134.583 62.6918 132.217 73.2609C130.187 82.3382 131.707 90.0282 127.422 99.4562C123.411 108.277 117.437 111.685 113.585 114.449C112.109 115.511 108.982 117.789 107.309 119.233C98.0506 127.217 108.79 140.042 113.2 138.665C115.081 138.079 115.292 139.498 117.437 138.44C119.097 137.624 123.661 137.891 123.834 141.419C123.834 141.419 122.439 140.628 121.121 140.204C120.698 140.068 118.404 139.791 115.884 141.948C116.658 141.288 119.847 141.283 119.852 143.811C119.712 144.691 119.664 143.905 118.952 143.832C117.356 143.413 117.005 144.675 117.005 144.675C118.717 144.586 121.121 145.429 122.593 146.303C125.036 145.245 126.777 149.114 125.782 148.287C125.368 147.659 123.218 147.141 123.074 147.905C122.887 148.889 121.699 148.994 120.217 148.543C118.88 148.135 118.63 147.397 118.409 149.004C118.471 149.015 119.342 150.035 118.193 149.994C113.46 149.81 113.263 144.455 104.515 142.895C102.937 142.612 99.5896 143.246 98.8153 141.623C98.8153 141.623 98.4546 141.775 98.3151 142.131C97.637 143.722 97.5793 141.073 97.7524 141.246C96.9781 141.225 96.3144 141.534 95.92 142.382C94.4099 144.083 95.569 139.639 97.5937 139.529C116.581 139.822 92.515 134.519 95.0255 125.829L95.2948 124.201C96.1557 121.997 94.4339 121.238 91.5723 122.086C92.034 121.95 89.9371 122.62 87.9268 121.961C83.8868 120.636 81.006 127.452 72.6568 130.216C70.0597 131.075 41.6648 151.187 52.6784 137.953C41.2704 146.073 69.9924 119.202 70.0549 118.197C68.3812 118.616 56.2903 128.148 60.2821 121.05C71.6468 100.817 90.3363 88.1751 106.323 71.4235C110.204 67.1885 113.922 62.6237 116.716 58.1113C121.723 49.9972 133.313 45.8146 143.317 56.0173C142.855 55.5462 150.358 58.4306 150.002 60.357Z" fill="white"/>
</g>
</g>
</g>
<defs>
<clipPath id="clip0_1375_1230">
<rect width="200" height="200" fill="white"/>
</clipPath>
<clipPath id="clip1_1375_1230">
<rect x="16.6667" y="16.6665" width="166.667" height="166.667" rx="83.3333" fill="white"/>
</clipPath>
<clipPath id="clip2_1375_1230">
<rect width="100" height="100" fill="white" transform="translate(50 50)"/>
</clipPath>
</defs>
</svg>
