<svg width="200" height="200" viewBox="0 0 200 200" fill="none" xmlns="http://www.w3.org/2000/svg">
<g clip-path="url(#clip0_1372_13186)">
<rect x="16.6667" y="16.666" width="166.667" height="166.667" rx="83.3333" fill="#AC0011"/>
<path d="M121.479 115.729C117.709 118.058 115.381 122.051 115.381 126.488C115.381 131.48 118.374 136.028 122.92 137.913C122.033 140.797 120.703 143.46 119.04 145.9C116.6 149.339 114.05 152.888 110.281 152.888C106.511 152.888 105.403 150.67 100.968 150.67C96.6437 150.67 95.0915 152.999 91.5437 152.999C87.9958 152.999 85.5566 149.782 82.7848 145.789C79.1261 140.243 77.0196 133.809 76.9087 127.043C76.9087 116.061 84.0044 110.182 91.1002 110.182C94.8698 110.182 97.9742 112.623 100.302 112.623C102.52 112.623 106.068 110.071 110.281 110.071C114.716 109.961 118.929 112.068 121.479 115.729ZM108.285 105.413C110.17 103.194 111.168 100.421 111.279 97.537C111.279 97.2042 111.279 96.7605 111.168 96.4277C107.953 96.7605 104.959 98.3134 102.852 100.754C100.968 102.861 99.859 105.524 99.7481 108.408C99.7481 108.74 99.7481 109.073 99.859 109.406C100.081 109.406 100.413 109.517 100.635 109.517C103.629 109.295 106.4 107.742 108.285 105.413Z" fill="white"/>
<path d="M115.448 73.4203C114.877 73.4204 114.319 73.2511 113.845 72.9338C113.37 72.6165 113 72.1655 112.781 71.6377C112.563 71.11 112.506 70.5292 112.617 69.9689C112.728 69.4086 113.003 68.8939 113.406 68.4898C113.81 68.0858 114.324 67.8106 114.884 67.699C115.444 67.5875 116.024 67.6446 116.551 67.8631C117.079 68.0816 117.529 68.4517 117.847 68.9267C118.164 69.4016 118.333 69.9601 118.333 70.5313C118.332 71.2971 118.028 72.0312 117.487 72.5728C116.946 73.1144 116.213 73.4192 115.448 73.4203ZM83.5523 73.4203C82.9815 73.4204 82.4235 73.2511 81.9488 72.9338C81.4742 72.6165 81.1042 72.1655 80.8857 71.6377C80.6672 71.11 80.6099 70.5292 80.7211 69.9689C80.8324 69.4086 81.1072 68.8939 81.5107 68.4898C81.9142 68.0858 82.4284 67.8106 82.9882 67.699C83.548 67.5875 84.1282 67.6446 84.6556 67.8631C85.183 68.0816 85.6338 68.4517 85.951 68.9267C86.2682 69.4016 86.4375 69.9601 86.4376 70.5313C86.4369 71.2971 86.1327 72.0314 85.5918 72.573C85.0509 73.1146 84.3174 73.4193 83.5523 73.4203ZM116.483 56.0227L122.25 46.0255C122.329 45.889 122.38 45.7382 122.4 45.5819C122.421 45.4255 122.411 45.2666 122.37 45.1142C122.329 44.9618 122.259 44.819 122.163 44.6938C122.067 44.5686 121.948 44.4635 121.811 44.3846C121.675 44.3056 121.524 44.2543 121.368 44.2337C121.212 44.213 121.053 44.2233 120.901 44.264C120.749 44.3048 120.606 44.3751 120.481 44.4711C120.356 44.567 120.251 44.6867 120.172 44.8232L114.332 54.9467C109.866 52.9068 104.851 51.7709 99.4996 51.7709C94.1481 51.7709 89.1332 52.9084 84.6676 54.9467L78.8283 44.8232C78.7496 44.6867 78.6447 44.5669 78.5197 44.4709C78.3947 44.3749 78.252 44.3045 78.0998 44.2636C77.9476 44.2228 77.7889 44.2123 77.6327 44.2329C77.4764 44.2535 77.3258 44.3046 77.1893 44.3835C77.0529 44.4623 76.9332 44.5673 76.8373 44.6924C76.7414 44.8175 76.671 44.9603 76.6302 45.1126C76.5894 45.2649 76.579 45.4238 76.5995 45.5802C76.6201 45.7365 76.6712 45.8873 76.7499 46.0239L82.5174 56.0227C72.6144 61.4137 65.8409 71.4479 64.8501 83.3032H134.15C133.158 71.4479 126.385 61.4137 116.483 56.0227Z" fill="white"/>
</g>
<defs>
<clipPath id="clip0_1372_13186">
<rect x="16.6667" y="16.666" width="166.667" height="166.667" rx="83.3333" fill="white"/>
</clipPath>
</defs>
</svg>
