<svg width="200" height="200" viewBox="0 0 200 200" fill="none" xmlns="http://www.w3.org/2000/svg">
<g clip-path="url(#clip0_1375_1176)">
<rect x="16.6667" y="16.667" width="166.667" height="166.667" rx="83.3333" fill="#AC0011"/>
<path d="M99.9995 150.001C127.303 150.001 150 127.354 150 100.001C150 72.6971 127.254 50.001 99.9506 50.001C72.5976 50.001 49.9998 72.6971 49.9998 100.001C49.9998 127.354 72.6467 150.001 99.9995 150.001ZM99.9995 141.668C76.8623 141.668 58.3819 123.138 58.3819 100.001C58.3819 76.9128 76.8134 58.3344 99.9506 58.3344C123.039 58.3344 141.617 76.9128 141.666 100.001C141.716 123.138 123.088 141.668 99.9995 141.668ZM87.9897 78.1384C79.5585 78.1384 73.431 84.5108 73.431 93.3344C73.431 106.472 87.3525 118.531 97.5485 125.05C98.382 125.54 99.4604 126.227 100.098 126.227C100.735 126.227 101.666 125.54 102.451 125.05C112.647 118.531 126.519 106.472 126.519 93.3344C126.519 84.5108 120.441 78.1384 111.96 78.1384C106.715 78.1384 102.451 81.1776 99.9995 85.7364C97.4996 81.1776 93.3329 78.1384 87.9897 78.1384Z" fill="white"/>
</g>
<defs>
<clipPath id="clip0_1375_1176">
<rect x="16.6667" y="16.667" width="166.667" height="166.667" rx="83.3333" fill="white"/>
</clipPath>
</defs>
</svg>
