<svg width="200" height="200" viewBox="0 0 200 200" fill="none" xmlns="http://www.w3.org/2000/svg">
<g clip-path="url(#clip0_1379_7654)">
<rect x="16.6667" y="16.6665" width="166.667" height="166.667" rx="83.3333" fill="#AC0011"/>
<path d="M50 100C50 93.1468 51.287 86.7118 53.861 80.695C56.4672 74.6461 60.0547 69.3211 64.6236 64.7201C69.2246 60.1191 74.5335 56.5155 80.5502 53.9093C86.5991 51.3031 93.0824 50 100 50C106.918 50 113.385 51.3031 119.402 53.9093C125.45 56.5155 130.759 60.1191 135.328 64.7201C139.929 69.3211 143.517 74.6461 146.091 80.695C148.697 86.7118 150 93.1468 150 100C150 106.853 148.697 113.305 146.091 119.353C143.517 125.37 139.994 130.631 135.521 135.135C134.653 136.036 133.816 136.004 133.012 135.039L130.695 132.433C129.955 131.596 129.971 130.776 130.743 129.971C134.508 126.078 137.484 121.557 139.672 116.409C141.86 111.261 142.954 105.792 142.954 100C142.954 94.1442 141.828 88.6262 139.575 83.446C137.355 78.2658 134.266 73.697 130.309 69.7394C126.351 65.7819 121.782 62.6931 116.602 60.473C111.422 58.2207 105.888 57.0946 100 57.0946C94.112 57.0946 88.5779 58.2207 83.3977 60.473C78.2175 62.6931 73.6486 65.7819 69.6911 69.7394C65.7336 73.697 62.6287 78.2658 60.3764 83.446C58.1564 88.6262 57.0463 94.1442 57.0463 100C57.0463 105.792 58.1403 111.261 60.3282 116.409C62.5161 121.557 65.4923 126.078 69.2568 129.971C70.029 130.776 70.045 131.596 69.305 132.433L66.9884 135.039C66.184 136.004 65.3475 136.036 64.4788 135.135C60.0064 130.631 56.4672 125.37 53.861 119.353C51.287 113.305 50 106.853 50 100ZM64.0444 100C64.0444 95.0451 64.9775 90.4119 66.8436 86.1005C68.7098 81.7568 71.2838 77.9441 74.5656 74.6622C77.8797 71.3482 81.7085 68.7581 86.0521 66.8919C90.3958 64.9936 95.045 64.0444 100 64.0444C104.955 64.0444 109.604 64.9936 113.948 66.8919C118.292 68.7581 122.104 71.3482 125.386 74.6622C128.7 77.9441 131.29 81.7568 133.156 86.1005C135.023 90.4119 135.956 95.0451 135.956 100C135.956 104.73 135.087 109.202 133.349 113.417C131.644 117.6 129.279 121.3 126.255 124.518C125.386 125.451 124.533 125.451 123.697 124.518L121.332 121.911C120.592 121.139 120.608 120.303 121.38 119.402C123.697 116.828 125.515 113.884 126.834 110.57C128.185 107.256 128.861 103.732 128.861 100C128.861 96.0747 128.105 92.3746 126.593 88.8997C125.113 85.3926 123.037 82.3199 120.367 79.6815C117.696 77.011 114.624 74.9196 111.149 73.4074C107.674 71.8952 103.958 71.139 100 71.139C96.0425 71.139 92.3102 71.8952 88.8031 73.4074C85.3282 74.9196 82.2555 77.011 79.5849 79.6815C76.9466 82.3199 74.8713 85.3926 73.3591 88.8997C71.879 92.3746 71.139 96.0747 71.139 100C71.139 103.732 71.7986 107.272 73.1178 110.618C74.4691 113.932 76.3031 116.876 78.6197 119.45C79.4241 120.383 79.4402 121.22 78.668 121.96L76.3514 124.518C75.4826 125.483 74.6139 125.483 73.7452 124.518C70.7207 121.3 68.3398 117.6 66.6023 113.417C64.897 109.202 64.0444 104.73 64.0444 100ZM67.9537 144.112L97.7317 110.328C98.3108 109.653 99.0508 109.315 99.9517 109.315C100.853 109.315 101.609 109.653 102.22 110.328L131.998 144.112C132.77 144.981 132.963 145.898 132.577 146.863C132.191 147.861 131.387 148.359 130.164 148.359H69.7876C68.565 148.359 67.7606 147.861 67.3745 146.863C66.9884 145.898 67.1815 144.981 67.9537 144.112ZM78.0888 100C78.0888 96.0104 79.0701 92.3585 81.0328 89.0445C83.0277 85.6983 85.6821 83.0438 88.9961 81.0811C92.3102 79.0863 95.9781 78.0889 100 78.0889C104.022 78.0889 107.69 79.0863 111.004 81.0811C114.318 83.0438 116.956 85.6983 118.919 89.0445C120.914 92.3585 121.911 96.0104 121.911 100C121.911 102.606 121.477 105.084 120.608 107.433C119.739 109.781 118.517 111.921 116.94 113.851C116.168 114.849 115.331 114.865 114.43 113.9L111.969 111.39C111.261 110.65 111.213 109.814 111.824 108.88C112.79 107.626 113.53 106.242 114.044 104.73C114.559 103.218 114.817 101.641 114.817 100C114.817 97.2974 114.141 94.836 112.79 92.6159C111.438 90.3637 109.636 88.5619 107.384 87.2105C105.164 85.8591 102.703 85.1835 100 85.1835C97.2973 85.1835 94.8198 85.8591 92.5676 87.2105C90.3475 88.5619 88.5618 90.3637 87.2104 92.6159C85.8591 94.836 85.1834 97.2974 85.1834 100C85.1834 101.641 85.4408 103.234 85.9556 104.778C86.4704 106.29 87.2104 107.658 88.1757 108.88C88.787 109.814 88.7387 110.65 88.0309 111.39L85.6178 113.851C84.7169 114.817 83.8642 114.817 83.0598 113.851C81.4833 111.921 80.2606 109.781 79.3919 107.433C78.5232 105.084 78.0888 102.606 78.0888 100Z" fill="white"/>
</g>
<defs>
<clipPath id="clip0_1379_7654">
<rect x="16.6667" y="16.6665" width="166.667" height="166.667" rx="83.3333" fill="white"/>
</clipPath>
</defs>
</svg>
