<svg width="200" height="200" viewBox="0 0 200 200" fill="none" xmlns="http://www.w3.org/2000/svg">
<g clip-path="url(#clip0_1380_7675)">
<rect x="16.6667" y="16.667" width="166.667" height="166.667" rx="83.3333" fill="#AC0011"/>
<mask id="mask0_1380_7675" style="mask-type:alpha" maskUnits="userSpaceOnUse" x="55" y="50" width="101" height="101">
<rect x="55.0002" y="50.001" width="100" height="100" fill="#D9D9D9"/>
</mask>
<g mask="url(#mask0_1380_7675)">
<path d="M111.25 81.251C111.25 86.2238 109.275 90.9929 105.758 94.5092C102.242 98.0255 97.4731 100.001 92.5002 100.001C87.5274 100.001 82.7583 98.0255 79.242 94.5092C75.7257 90.9929 73.7502 86.2238 73.7502 81.251C73.7502 76.2782 75.7257 71.509 79.242 67.9927C82.7583 64.4764 87.5274 62.501 92.5002 62.501C97.4731 62.501 102.242 64.4764 105.758 67.9927C109.275 71.509 111.25 76.2782 111.25 81.251ZM55.0002 131.251C55.0002 137.501 61.2502 137.501 61.2502 137.501H123.75C123.75 137.501 130 137.501 130 131.251C130 125.001 123.75 106.251 92.5002 106.251C61.2502 106.251 55.0002 125.001 55.0002 131.251ZM139.375 80.6885C148.044 71.7822 169.719 87.376 139.375 107.42C109.038 87.376 130.706 71.776 139.375 80.6885Z" fill="white"/>
</g>
</g>
<defs>
<clipPath id="clip0_1380_7675">
<rect x="16.6667" y="16.667" width="166.667" height="166.667" rx="83.3333" fill="white"/>
</clipPath>
</defs>
</svg>
