<svg width="200" height="200" viewBox="0 0 200 200" fill="none" xmlns="http://www.w3.org/2000/svg">
<g clip-path="url(#clip0_1375_1202)">
<rect x="16.6667" y="16.6667" width="166.667" height="166.667" rx="83.3333" fill="#AC0011"/>
<g clip-path="url(#clip1_1375_1202)">
<mask id="mask0_1375_1202" style="mask-type:alpha" maskUnits="userSpaceOnUse" x="40" y="40" width="121" height="121">
<rect x="40.0005" y="40.0029" width="120" height="120" fill="#D9D9D9"/>
</mask>
<g mask="url(#mask0_1375_1202)">
<path d="M60.0005 125.003V135.003H140V125.003H60.0005ZM60.0005 70.0029H71.0005C70.5838 69.2529 70.313 68.4613 70.188 67.6279C70.063 66.7946 70.0005 65.9196 70.0005 65.0029C70.0005 60.8363 71.4588 57.2946 74.3755 54.3779C77.2922 51.4613 80.8338 50.0029 85.0005 50.0029C87.5005 50.0029 89.813 50.6488 91.938 51.9404C94.063 53.2321 95.9172 54.8363 97.5005 56.7529L100 60.0029L102.5 56.7529C104 54.7529 105.834 53.1279 108 51.8779C110.167 50.6279 112.5 50.0029 115 50.0029C119.167 50.0029 122.709 51.4613 125.625 54.3779C128.542 57.2946 130 60.8363 130 65.0029C130 65.9196 129.938 66.7946 129.813 67.6279C129.688 68.4613 129.417 69.2529 129 70.0029H140C142.75 70.0029 145.105 70.9821 147.063 72.9404C149.021 74.8988 150 77.2529 150 80.0029V135.003C150 137.753 149.021 140.107 147.063 142.065C145.105 144.024 142.75 145.003 140 145.003H60.0005C57.2505 145.003 54.8963 144.024 52.938 142.065C50.9797 140.107 50.0005 137.753 50.0005 135.003V80.0029C50.0005 77.2529 50.9797 74.8988 52.938 72.9404C54.8963 70.9821 57.2505 70.0029 60.0005 70.0029ZM60.0005 110.003H140V80.0029H114.5L125 94.2529L117 100.003L100 77.0029L83.0005 100.003L75.0005 94.2529L85.2505 80.0029H60.0005V110.003ZM85.0005 70.0029C86.4172 70.0029 87.6047 69.5238 88.563 68.5654C89.5213 67.6071 90.0005 66.4196 90.0005 65.0029C90.0005 63.5863 89.5213 62.3988 88.563 61.4404C87.6047 60.4821 86.4172 60.0029 85.0005 60.0029C83.5838 60.0029 82.3963 60.4821 81.438 61.4404C80.4797 62.3988 80.0005 63.5863 80.0005 65.0029C80.0005 66.4196 80.4797 67.6071 81.438 68.5654C82.3963 69.5238 83.5838 70.0029 85.0005 70.0029ZM115 70.0029C116.417 70.0029 117.605 69.5238 118.563 68.5654C119.521 67.6071 120 66.4196 120 65.0029C120 63.5863 119.521 62.3988 118.563 61.4404C117.605 60.4821 116.417 60.0029 115 60.0029C113.584 60.0029 112.396 60.4821 111.438 61.4404C110.48 62.3988 110 63.5863 110 65.0029C110 66.4196 110.48 67.6071 111.438 68.5654C112.396 69.5238 113.584 70.0029 115 70.0029Z" fill="white"/>
</g>
</g>
</g>
<defs>
<clipPath id="clip0_1375_1202">
<rect x="16.6667" y="16.6667" width="166.667" height="166.667" rx="83.3333" fill="white"/>
</clipPath>
<clipPath id="clip1_1375_1202">
<rect width="100" height="100" fill="white" transform="translate(50 50)"/>
</clipPath>
</defs>
</svg>
