<svg width="200" height="200" viewBox="0 0 200 200" fill="none" xmlns="http://www.w3.org/2000/svg">
<g clip-path="url(#clip0_1372_14516)">
<rect x="16.6667" y="16.666" width="166.667" height="166.667" rx="83.3333" fill="#AC0011"/>
<path d="M79.1077 55.18C79.3712 51.5428 81.5219 49.6602 85.5599 49.6602H113.52C117.558 49.6602 119.665 51.5428 119.928 55.18H79.1077ZM71.3387 67.0328C71.997 63.139 73.8846 60.9994 78.2737 60.9994H120.455C124.844 60.9994 126.731 63.139 127.39 67.0328H71.3387ZM74.894 149.66C65.7645 149.66 61.1118 145.253 61.1118 136.395V87.1013C61.1118 78.2866 65.7645 73.8365 74.894 73.8365H125.107C134.281 73.8365 138.89 78.2866 138.89 87.1013V136.395C138.89 145.21 134.325 149.66 126.424 149.66H74.894ZM112.062 104.471C113.969 103.968 114.566 103.58 114.566 101.333V93.7396C114.566 92.2675 114.049 91.6088 111.943 92.1125L100.299 94.9405C98.3516 95.4055 97.9143 95.793 97.9143 98.0787V115.551C97.9143 117.256 97.7555 117.566 95.7685 118.108L92.1123 119.038C88.496 119.968 85.4359 122.06 85.4359 125.856C85.4359 129.149 87.9793 131.552 91.9932 131.552C97.6759 131.552 101.531 127.561 101.531 121.944V108.655C101.531 107.222 101.849 106.834 102.763 106.641L112.062 104.471Z" fill="white"/>
</g>
<defs>
<clipPath id="clip0_1372_14516">
<rect x="16.6667" y="16.666" width="166.667" height="166.667" rx="83.3333" fill="white"/>
</clipPath>
</defs>
</svg>
