<svg width="200" height="200" viewBox="0 0 200 200" fill="none" xmlns="http://www.w3.org/2000/svg">
<g clip-path="url(#clip0_1375_1222)">
<rect x="16.6667" y="16.666" width="166.667" height="166.667" rx="83.3333" fill="#AC0011"/>
<mask id="mask0_1375_1222" style="mask-type:alpha" maskUnits="userSpaceOnUse" x="50" y="50" width="100" height="100">
<rect x="50" y="50" width="100" height="100" fill="#D9D9D9"/>
</mask>
<g mask="url(#mask0_1375_1222)">
<path d="M91.6667 137.5C87.0833 137.5 83.1597 135.868 79.8958 132.604C76.6319 129.34 75 125.417 75 120.833C75 116.25 76.6319 112.326 79.8958 109.062C83.1597 105.799 87.0833 104.167 91.6667 104.167C93.2639 104.167 94.7396 104.358 96.0938 104.74C97.4479 105.122 98.75 105.694 100 106.458V62.5H125V79.1667H108.333V120.833C108.333 125.417 106.701 129.34 103.438 132.604C100.174 135.868 96.25 137.5 91.6667 137.5Z" fill="white"/>
</g>
</g>
<defs>
<clipPath id="clip0_1375_1222">
<rect x="16.6667" y="16.666" width="166.667" height="166.667" rx="83.3333" fill="white"/>
</clipPath>
</defs>
</svg>
