<svg width="200" height="200" viewBox="0 0 200 200" fill="none" xmlns="http://www.w3.org/2000/svg">
<g clip-path="url(#clip0_1375_1091)">
<rect x="16.6667" y="16.6665" width="166.667" height="166.667" rx="83.3333" fill="#AC0011"/>
<path d="M101.201 50C103.147 50.5198 105.018 51.1732 106.607 52.4874C110.29 55.5392 111.589 60.7517 109.718 65.1994C107.854 69.6174 103.102 72.4018 98.4169 71.8226C93.5609 71.2212 89.7072 67.5977 88.883 62.8679C87.836 56.8757 91.6526 51.3514 97.6373 50.1856C97.7858 50.1559 97.9269 50.0668 98.068 50C99.1075 50 100.147 50 101.194 50H101.201Z" fill="white"/>
<path d="M114.151 149.921C111.471 149.936 109.555 148.763 108.649 146.112C107.921 143.981 107.535 141.717 107.075 139.504C105.434 131.663 103.993 123.777 101.417 116.166C101.12 115.283 100.719 114.414 100.258 113.605C99.7833 112.788 99.2412 112.773 98.8329 113.627C98.1646 115.023 97.4815 116.456 97.1176 117.948C95.5509 124.342 94.0807 130.757 92.618 137.172C92.0314 139.764 91.6527 142.407 91.0216 144.991C90.4201 147.426 89.0687 149.298 86.3957 149.847C82.8167 150.59 79.3343 148.555 78.8888 145.273C78.7254 144.063 79.0224 142.756 79.2452 141.523C81.0273 131.626 82.9058 121.743 84.6136 111.83C85.4601 106.907 86.0467 101.94 86.7001 96.9797C86.8263 96.0219 86.7818 95.0343 86.7446 94.0542C86.6778 92.1831 85.7125 90.9579 83.9379 90.3862C81.896 89.7328 79.8615 89.0793 77.8121 88.4408C73.8174 87.1933 69.8004 86.035 65.8427 84.6762C64.2092 84.1119 62.5905 83.31 61.1723 82.3224C57.1107 79.4934 59.4645 73.4122 62.3826 72.2019C63.5335 71.7267 64.6621 71.7786 65.8056 72.1276C74.1441 74.6522 82.6237 76.5159 91.2592 77.6817C97.8527 78.5727 104.417 78.2757 110.973 77.2362C118.643 76.0259 126.18 74.2438 133.642 72.0905C135.833 71.4594 137.637 72.0979 138.907 73.9914C140.726 76.709 141.357 80.8225 136.969 83.1021C134.942 84.1564 132.736 84.899 130.576 85.6786C125.972 87.3344 121.339 88.9234 116.713 90.5347C116.527 90.6015 116.341 90.6609 116.163 90.7352C112.599 92.2128 112.102 92.6954 112.443 96.7644C113.03 103.752 114.181 110.672 115.517 117.562C117.166 126.101 118.673 134.663 120.336 143.202C120.982 146.528 118.844 149.572 114.931 149.906C114.671 149.929 114.411 149.906 114.151 149.906V149.921Z" fill="white"/>
</g>
<defs>
<clipPath id="clip0_1375_1091">
<rect x="16.6667" y="16.6665" width="166.667" height="166.667" rx="83.3333" fill="white"/>
</clipPath>
</defs>
</svg>
