<svg width="200" height="200" viewBox="0 0 200 200" fill="none" xmlns="http://www.w3.org/2000/svg">
<g clip-path="url(#clip0_1858_40349)">
<rect width="200" height="200" fill="white"/>
<path d="M189.286 100C189.286 149.311 149.311 189.286 100 189.286C50.6889 189.286 10.7143 149.311 10.7143 100C10.7143 50.6889 50.6889 10.7143 100 10.7143C149.311 10.7143 189.286 50.6889 189.286 100Z" stroke="#577F38" stroke-width="11.9048" stroke-linecap="round" stroke-linejoin="round"/>
<g clip-path="url(#clip1_1858_40349)">
<path d="M82.3275 101.417C84.1026 94.8228 87.514 88.7838 92.2454 83.8599C96.9768 78.936 102.875 75.2866 109.393 73.2501H109.482C109.482 72.6549 109.524 72.0596 109.524 71.4644C109.534 62.8409 106.618 54.4691 101.253 47.7178C95.8882 40.9666 88.3912 36.2353 79.9882 34.2977C81.4321 40.5929 81.2533 47.1516 79.4687 53.3588C77.684 59.566 74.352 65.2181 69.785 69.785C65.2181 74.3519 59.566 77.684 53.3588 79.4687C47.1516 81.2533 40.5929 81.4321 34.2977 79.9882C35.6542 85.849 38.3768 91.3062 42.2435 95.9147C46.1103 100.523 51.0116 104.152 56.5477 106.506C60.0198 103.465 64.2327 101.394 68.761 100.501C73.2894 99.6089 77.9731 99.9267 82.3394 101.423L82.3275 101.417Z" fill="#F8CB73"/>
<path d="M56.5477 106.506C51.0116 104.152 46.1103 100.523 42.2435 95.9147C38.3768 91.3062 35.6542 85.849 34.2977 79.9882C40.5929 81.4321 47.1516 81.2533 53.3588 79.4687C59.566 77.684 65.2181 74.3519 69.785 69.785C74.352 65.2181 77.684 59.5659 79.4687 53.3588C81.2533 47.1516 81.4321 40.5929 79.9882 34.2977C88.3852 36.2339 95.8777 40.9599 101.242 47.7039C103.537 50.5894 105.385 53.7714 106.748 57.1429" stroke="#577F38" stroke-width="9.52381" stroke-linecap="round" stroke-linejoin="round"/>
<path d="M80.9522 109.524C81.4102 101.626 84.1707 94.0347 88.8929 87.6874C93.6151 81.3401 100.092 76.5143 107.525 73.8056C114.959 71.0969 123.022 70.6239 130.721 72.4448C138.42 74.2657 145.417 78.301 150.849 84.0525C156.281 89.8041 159.91 97.0203 161.288 104.811C162.667 112.601 161.734 120.624 158.605 127.89C155.477 135.157 150.289 141.348 143.682 145.7C137.076 150.052 129.34 152.375 121.428 152.381H73.8094C70.0097 152.377 66.2564 151.547 62.8097 149.947C59.3631 148.348 56.3058 146.018 53.8499 143.118C51.394 140.219 49.5984 136.82 48.5877 133.157C47.5769 129.495 47.3753 125.656 47.9967 121.907C48.618 118.159 50.0476 114.59 52.1862 111.45C54.3248 108.309 57.1211 105.671 60.3812 103.719C63.6412 101.768 67.2869 100.548 71.0653 100.147" stroke="#577F38" stroke-width="9.52381" stroke-linecap="round" stroke-linejoin="round"/>
</g>
</g>
<defs>
<clipPath id="clip0_1858_40349">
<rect width="200" height="200" fill="white"/>
</clipPath>
<clipPath id="clip1_1858_40349">
<rect width="152.381" height="152.381" fill="white" transform="translate(23.8096 23.8096)"/>
</clipPath>
</defs>
</svg>
