<svg width="200" height="200" viewBox="0 0 200 200" fill="none" xmlns="http://www.w3.org/2000/svg">
<g clip-path="url(#clip0_1858_40125)">
<rect width="200" height="200" fill="white"/>
<path d="M189.286 99.9998C189.286 149.311 149.311 189.286 100 189.286C50.6889 189.286 10.7143 149.311 10.7143 99.9998C10.7143 50.6887 50.6889 10.7141 100 10.7141C149.311 10.7141 189.286 50.6887 189.286 99.9998Z" stroke="#577F38" stroke-width="11.9048" stroke-linecap="round" stroke-linejoin="round"/>
<path d="M134.19 142.857H65.8102C61.0234 142.857 57.1429 146.38 57.1429 150.725V154.038C57.1429 158.383 61.0234 161.905 65.8102 161.905H134.19C138.977 161.905 142.857 158.383 142.857 154.038V150.725C142.857 146.38 138.977 142.857 134.19 142.857Z" fill="#577F38"/>
<path d="M85.7144 90.4768C73.5692 52.9216 107.824 33.334 107.824 33.334C104.133 91.2287 122.776 89.267 122.776 89.267C129.677 88.7407 130.108 73.1904 130.108 73.1904C130.108 73.1904 142.377 77.5924 142.856 100.32C142.904 103.143 141.083 125.822 120.284 130.989C120.284 130.989 119.469 131.229 118.079 131.564C119.565 128.071 120.092 124.674 119.853 121.324C119.038 111.324 115.012 104.387 103.175 95.4392C103.175 95.4392 104.421 111.468 96.8968 115.296C93.1108 117.21 87.0723 116.3 82.5195 110.702C82.5195 110.702 78.8772 125.918 91.0979 133.334C89.8998 133.143 88.7496 132.903 87.5995 132.616C69.5799 127.879 62.8225 116.97 62.8225 116.97C47.8222 94.9608 67.2795 68.4536 67.2795 68.4536C68.7172 87.401 83.3334 90.4768 83.3334 90.4768H85.7144Z" fill="#F8CB73"/>
<path d="M85.5866 68.4536C85.5866 47.6197 107.824 33.334 107.824 33.334C104.133 91.2287 122.776 89.267 122.776 89.267C129.677 88.7407 130.108 73.1904 130.108 73.1904C130.108 73.1904 142.377 77.5924 142.856 100.32C142.904 103.143 141.083 125.822 120.284 130.989C120.284 130.989 119.469 131.229 118.079 131.564C119.565 128.071 120.092 124.674 119.853 121.324C119.038 111.324 115.012 104.387 103.175 95.4392C103.175 95.4392 104.421 111.468 96.8968 115.296C93.1108 117.21 87.0723 116.3 82.5195 110.702C82.5195 110.702 78.8772 125.918 91.0979 133.334C89.8998 133.143 88.7496 132.903 87.5995 132.616C69.5799 127.879 62.8225 116.97 62.8225 116.97C47.8222 94.9608 67.2795 68.4536 67.2795 68.4536C68.7172 87.401 85.5866 91.8507 85.5866 91.8507" stroke="#577F38" stroke-width="9.52381" stroke-linecap="round" stroke-linejoin="round"/>
</g>
<defs>
<clipPath id="clip0_1858_40125">
<rect width="200" height="200" fill="white"/>
</clipPath>
</defs>
</svg>
