<svg width="200" height="200" viewBox="0 0 200 200" fill="none" xmlns="http://www.w3.org/2000/svg">
<rect width="200" height="200" fill="white"/>
<path d="M186.586 101.732C186.586 149.956 147.492 189.05 99.268 189.05C51.0437 189.05 11.95 149.956 11.95 101.732C11.95 53.5068 51.0437 14.4129 99.268 14.4129C147.492 14.4129 186.586 53.5068 186.586 101.732Z" stroke="#577F38" stroke-width="11.9" stroke-linecap="round" stroke-linejoin="round"/>
<g clip-path="url(#clip0_1858_40213)">
<path d="M99.529 118.186C117.253 118.186 131.622 103.818 131.622 86.0932C131.622 68.3686 117.253 54 99.529 54C81.8045 54 67.4359 68.3686 67.4359 86.0932C67.4359 103.818 81.8045 118.186 99.529 118.186Z" fill="#F8CB73"/>
<path d="M54 142.875C58.9318 135.292 65.6794 129.061 73.6302 124.748C81.5811 120.434 90.4834 118.175 99.529 118.175C108.574 118.175 117.477 120.434 125.428 124.748C133.379 129.061 140.126 135.292 145.058 142.875" stroke="#577F38" stroke-width="11.495" stroke-linecap="round" stroke-linejoin="round"/>
<path d="M99.529 118.186C117.253 118.186 131.622 103.818 131.622 86.0932C131.622 68.3686 117.253 54 99.529 54C81.8045 54 67.4359 68.3686 67.4359 86.0932C67.4359 103.818 81.8045 118.186 99.529 118.186Z" stroke="#577F38" stroke-width="11.495" stroke-linecap="round" stroke-linejoin="round"/>
</g>
<defs>
<clipPath id="clip0_1858_40213">
<rect width="186.537" height="186.537" fill="white" transform="translate(6.73401 5)"/>
</clipPath>
</defs>
</svg>
