<svg width="200" height="200" viewBox="0 0 200 200" fill="none" xmlns="http://www.w3.org/2000/svg">
<g clip-path="url(#clip0_1858_40224)">
<rect width="200" height="200" fill="white"/>
<path d="M189.286 99.9998C189.286 149.311 149.311 189.286 100 189.286C50.6889 189.286 10.7143 149.311 10.7143 99.9998C10.7143 50.6887 50.6889 10.7141 100 10.7141C149.311 10.7141 189.286 50.6887 189.286 99.9998Z" stroke="#577F38" stroke-width="11.9048" stroke-linecap="round" stroke-linejoin="round"/>
<path d="M152.381 133.333C152.381 133.333 142.857 142.857 123.809 142.857C104.762 142.857 95.2381 123.809 76.1904 123.809C57.1428 123.809 47.619 133.333 47.619 133.333V66.6664C47.619 66.6664 57.1428 57.1426 76.1904 57.1426C95.2381 57.1426 104.762 76.1902 123.809 76.1902C142.857 76.1902 152.381 66.6664 152.381 66.6664V133.333Z" fill="#F8CB73"/>
<path d="M47.619 66.6664C47.619 66.6664 57.1428 57.1426 76.1904 57.1426C95.2381 57.1426 104.762 76.1902 123.809 76.1902C142.857 76.1902 152.381 66.6664 152.381 66.6664" stroke="#577F38" stroke-width="9.52381" stroke-linecap="round" stroke-linejoin="round"/>
<path d="M47.619 100C47.619 100 57.1428 90.4766 76.1904 90.4766C95.2381 90.4766 104.762 109.524 123.809 109.524C142.857 109.524 152.381 100 152.381 100" stroke="#577F38" stroke-width="9.52381" stroke-linecap="round" stroke-linejoin="round"/>
<path d="M47.619 133.333C47.619 133.333 57.1428 123.81 76.1904 123.81C95.2381 123.81 104.762 142.857 123.809 142.857C142.857 142.857 152.381 133.333 152.381 133.333" stroke="#577F38" stroke-width="9.52381" stroke-linecap="round" stroke-linejoin="round"/>
</g>
<defs>
<clipPath id="clip0_1858_40224">
<rect width="200" height="200" fill="white"/>
</clipPath>
</defs>
</svg>
