<svg width="200" height="200" viewBox="0 0 200 200" fill="none" xmlns="http://www.w3.org/2000/svg">
<rect width="200" height="200" fill="white"/>
<path d="M186.586 101.732C186.586 149.956 147.492 189.05 99.268 189.05C51.0437 189.05 11.95 149.956 11.95 101.732C11.95 53.5068 51.0437 14.4129 99.268 14.4129C147.492 14.4129 186.586 53.5068 186.586 101.732Z" stroke="#577F38" stroke-width="11.9" stroke-linecap="round" stroke-linejoin="round"/>
<g clip-path="url(#clip0_1858_40173)">
<path d="M77.5597 114.59C92.2081 114.59 104.083 102.715 104.083 88.0671C104.083 73.4188 92.2081 61.5439 77.5597 61.5439C62.9113 61.5439 51.0365 73.4188 51.0365 88.0671C51.0365 102.715 62.9113 114.59 77.5597 114.59Z" fill="#F8CB73"/>
<path d="M39.9324 134.994C44.0082 128.727 49.5848 123.578 56.1557 120.013C62.7267 116.448 70.084 114.581 77.5596 114.581C85.0353 114.581 92.3925 116.448 98.9635 120.013C105.534 123.578 111.111 128.727 115.187 134.994" stroke="#577F38" stroke-width="9.5" stroke-linecap="round" stroke-linejoin="round"/>
<path d="M122.445 114.591C129.92 114.586 137.278 116.451 143.85 120.014C150.421 123.577 155.998 128.726 160.072 134.993" stroke="#577F38" stroke-width="9.5" stroke-linecap="round" stroke-linejoin="round"/>
<path d="M77.5597 114.59C92.2081 114.59 104.083 102.715 104.083 88.0671C104.083 73.4188 92.2081 61.5439 77.5597 61.5439C62.9113 61.5439 51.0365 73.4188 51.0365 88.0671C51.0365 102.715 62.9113 114.59 77.5597 114.59Z" stroke="#577F38" stroke-width="9.5" stroke-linecap="round" stroke-linejoin="round"/>
<path d="M112.596 63.4312C116.224 61.9841 120.127 61.3563 124.026 61.5925C127.925 61.8287 131.723 62.9232 135.15 64.7978C138.577 66.6723 141.548 69.2807 143.85 72.4364C146.152 75.5921 147.728 79.2173 148.467 83.0529C149.205 86.8886 149.087 90.84 148.121 94.6248C147.156 98.4096 145.366 101.934 142.88 104.947C140.394 107.96 137.273 110.387 133.741 112.054C130.208 113.721 126.351 114.587 122.445 114.59" stroke="#577F38" stroke-width="9.5" stroke-linecap="round" stroke-linejoin="round"/>
</g>
<defs>
<clipPath id="clip0_1858_40173">
<rect width="186.537" height="186.537" fill="white" transform="translate(6.73401 5)"/>
</clipPath>
</defs>
</svg>
