<?xml version="1.0" encoding="utf-8"?>
<!-- Generator: Adobe Illustrator 28.3.0, SVG Export Plug-In . SVG Version: 6.00 Build 0)  -->
<svg version="1.1" id="Layer_1" xmlns="http://www.w3.org/2000/svg" xmlns:xlink="http://www.w3.org/1999/xlink" x="0px" y="0px"
	 viewBox="0 0 720 720" style="enable-background:new 0 0 720 720;" xml:space="preserve">
<style type="text/css">
	.st0{fill:#4FA8AD;}
	.st1{fill:#FFFFFF;}
	.st2{fill-rule:evenodd;clip-rule:evenodd;fill:#FFFFFF;}
	.st3{fill:#C0C0C0;}
	.st4{fill-rule:evenodd;clip-rule:evenodd;fill:#111111;}
	.st5{fill:#111111;}
</style>
<circle class="st0" cx="360" cy="360" r="356.4"/>
<g>
	<path class="st1" d="M638.9,460.6v-43.2c0-16.7-9.1-25.3-23-25.3c-14.1,0-23.9,8.9-23.9,27.2v41.2h-9.7v-75.5h9.7v12.9
		c4.8-9.4,14.5-14.2,25.7-14.2c17.1,0,30.7,10.5,30.7,32.6v44.3H638.9z"/>
	<path class="st1" d="M456.9,422.7c0-23.6,15.4-38.7,36.1-38.7c14.9,0,25.6,8,29.9,17.6v-16.5h9.7v77.5c0,21.2-14.5,35.1-35.3,35.1
		c-19.5,0-33.1-10-36.1-25.7h9.5c3.2,10.2,12.7,17.3,26.6,17.3c14.4,0,25.6-9.5,25.6-26.7v-18.7c-4.4,9.7-14.9,17.8-29.9,17.8
		C472.2,461.7,456.9,446.3,456.9,422.7z M522.8,422.8c0-18.8-12.6-30.4-28.1-30.4c-15.9,0-28.1,11.1-28.1,30.3
		c0,19.1,12.2,30.6,28.1,30.6C510.3,453.3,522.8,441.6,522.8,422.8z"/>
	<path class="st1" d="M402,460.6v-75.5h9.7v75.5H402z M406.9,374.3c-3.9,0-7.1-3-7.1-7.2c0-4.1,3.2-7.1,7.1-7.1s7.1,2.9,7.1,7.1
		C413.9,371.2,410.7,374.3,406.9,374.3z"/>
	<path class="st1" d="M356.1,440.5c0,12.2-10.6,21.2-26.3,21.2c-17.1,0-29.2-8.6-30.4-22.4h10c0.8,8.3,8,14.2,20.3,14.2
		c10.8,0,16.9-5.8,16.9-13c0-18.7-45.4-7.7-45.4-36.1c0-11.2,10.6-20.5,26.6-20.5c16.2,0,26.8,8.6,27.7,23.1h-9.7
		c-0.6-8.4-6.8-14.8-18.3-14.8c-10.1,0-16.5,5.4-16.5,12C311.1,424.8,355.7,413.8,356.1,440.5z"/>
	<path class="st1" d="M222.4,392.3c-13.7,0-25.7,8.9-26.8,26.4h53.1C249.1,401.1,236.4,392.3,222.4,392.3z M257.4,436.7
		c-3.5,14.2-15.6,25-34.6,25c-21.4,0-37.1-14.9-37.1-38.9c0-24.1,15.4-38.9,37.1-38.9c22.1,0,35.7,15.8,35.7,35c0,3,0,5-0.3,7.6
		h-62.7c0.8,17.7,13.1,27,27.2,27c12.9,0,21.6-6.8,24.3-16.9H257.4z"/>
	<path class="st1" d="M129.9,289.1v111V445v15.6h9.7V264.9L129.9,289.1z"/>
	<path class="st2" d="M101.3,461.3c-21,0-38-17-38-38c0-21,17-38,38-38s38,17,38,38C139.4,444.3,122.3,461.3,101.3,461.3z"/>
	<path class="st3" d="M88.4,445.7c-4.9-2.9-8.8-7.3-11-12.5c-2.2-5.3-2.6-11.1-1.1-16.6c1.5-5.5,4.7-10.4,9.3-13.9
		s10.1-5.4,15.8-5.4c5.7,0,11.3,1.9,15.8,5.4c4.5,3.5,7.8,8.3,9.3,13.9s1.1,11.4-1.1,16.6c-2.2,5.3-6,9.7-11,12.5v-9.5l-13-28.1
		l-13,28.1V445.7z"/>
	<path class="st4" d="M101.3,399.5c-13.1,0-23.8,10.6-23.8,23.8c0,13.1,10.6,23.8,23.8,23.8c13.1,0,23.8-10.6,23.8-23.8
		C125.1,410.1,114.5,399.5,101.3,399.5z M73.2,423.2c0-15.5,12.6-28.1,28.1-28.1c15.5,0,28.1,12.6,28.1,28.1
		c0,15.5-12.6,28.1-28.1,28.1C85.8,451.3,73.2,438.8,73.2,423.2z"/>
	<path class="st4" d="M101.3,406c0.8,0,1.6,0.5,2,1.3l13,28.1c0.1,0.3,0.2,0.6,0.2,0.9v9.5c0,1.2-1,2.2-2.2,2.2s-2.2-1-2.2-2.2v-9
		l-10.8-23.4l-10.8,23.4v9c0,1.2-1,2.2-2.2,2.2c-1.2,0-2.2-1-2.2-2.2v-9.5c0-0.3,0.1-0.6,0.2-0.9l13-28.1
		C99.7,406.4,100.5,406,101.3,406z"/>
	<path class="st4" d="M107.8,436.2c-1.1,0-2.2,0.5-3.1,1.3c-0.8,0.8-1.3,1.9-1.3,3.1c0,1.2-1,2.2-2.2,2.2c-1.2,0-2.2-1-2.2-2.2
		c0-2.3,0.9-4.5,2.5-6.1c1.6-1.6,3.8-2.5,6.1-2.5s4.5,0.9,6.1,2.5c1.6,1.6,2.5,3.8,2.5,6.1c0,1.2-1,2.2-2.2,2.2s-2.2-1-2.2-2.2
		c0-1.1-0.5-2.2-1.3-3.1C110.1,436.7,109,436.2,107.8,436.2z"/>
	<path class="st4" d="M88.7,434.4c1.6-1.6,3.8-2.5,6.1-2.5s4.5,0.9,6.1,2.5c1.6,1.6,2.5,3.8,2.5,6.1v8.6c0,1.2-1,2.2-2.2,2.2
		c-1.2,0-2.2-1-2.2-2.2v-8.6c0-1.1-0.5-2.2-1.3-3.1c-0.8-0.8-1.9-1.3-3.1-1.3c-1.1,0-2.2,0.5-3.1,1.3c-0.8,0.8-1.3,1.9-1.3,3.1
		c0,1.2-1,2.2-2.2,2.2c-1.2,0-2.2-1-2.2-2.2C86.2,438.2,87.1,436,88.7,434.4z"/>
	<path class="st4" d="M92.2,423.2c0-1.2,1-2.2,2.2-2.2h14c1.2,0,2.2,1,2.2,2.2c0,1.2-1,2.2-2.2,2.2h-14
		C93.2,425.4,92.2,424.4,92.2,423.2z"/>
	<path class="st5" d="M622.9,258.3c4.7,0,8.5,0.5,11.5,1.4c3,0.8,5.9,2,8.7,3.6c0.9,0.5,1.7,0.9,2.4,1.2c0.7,0.3,1.4,0.5,1.9,0.5
		c0.7,0,1.3-0.4,1.7-1.2c0.4-0.9,0.7-2.3,1-4.2h2.9c-0.4,6-0.6,16.1-0.6,30.4h-2.9c-0.3-4.7-1.4-9.3-3.2-13.6
		c-1.8-4.3-4.3-7.8-7.5-10.6c-3.2-2.7-6.8-4.1-11-4.1c-3.8,0-6.9,1-9.2,3.1c-2.3,2-3.5,4.8-3.5,8.5c0,2.8,0.6,5.3,1.9,7.3
		c1.2,2.1,3.1,4.1,5.5,6.1c2.4,1.9,6.3,4.8,11.8,8.6c0.5,0.2,1,0.5,1.4,0.9c0.5,0.3,1,0.7,1.4,1c4.6,3.2,8.2,6,11,8.5
		c2.7,2.4,4.9,5.2,6.6,8.5c1.7,3.2,2.6,7,2.6,11.2c0,5.4-1.5,10-4.6,13.7c-3,3.7-7.1,6.4-12.2,8.2c-5.1,1.8-10.8,2.7-17.1,2.7
		c-5.1,0-9.3-0.4-12.7-1.2c-3.3-0.8-6.4-2-9.3-3.4c-1.8-1.2-3.2-1.7-4.2-1.7c-0.7,0-1.3,0.5-1.7,1.4c-0.4,0.8-0.7,2.2-1,4.1h-2.9
		c0.3-5.6,0.5-17.7,0.5-36.1h2.9c0.6,9.9,2.7,17.9,6.2,24c3.6,6.1,9,9.2,16.4,9.2c4.6,0,8.2-1.1,10.8-3.2c2.7-2.2,4.1-5.1,4.1-9
		c0-4.7-1.5-8.8-4.5-12.1c-2.9-3.4-7.5-7.2-13.7-11.3c-5-3.3-9-6.2-11.9-8.7c-3-2.5-5.4-5.4-7.3-8.6c-1.9-3.3-2.9-7.1-2.9-11.5
		c0-5.2,1.4-9.6,4.2-13.1c2.8-3.6,6.6-6.2,11.2-7.8C612.2,259.2,617.3,258.3,622.9,258.3z"/>
	<path class="st5" d="M582.9,262.6c-2.6,0.6-4.5,1.5-5.7,2.7c-1.2,1.2-2.1,3-2.5,5.5c-0.4,2.5-0.6,6.2-0.6,11.2v66.2
		c-1.7-0.2-3-0.2-4.1-0.2c-0.9,0-2.4,0.1-4.6,0.2L510.2,288v35.8c0,6.1,0.2,10.6,0.7,13.3c0.5,2.7,1.6,4.6,3.2,5.8
		c1.7,1.2,4.6,2.2,8.6,2.7v2.5c-3.4-0.2-8-0.4-13.9-0.4c-4.4,0-7.8,0.1-10.3,0.4v-2.5c2.6-0.6,4.5-1.5,5.7-2.6
		c1.2-1.2,2.1-3.1,2.5-5.6c0.4-2.5,0.6-6.2,0.6-11.2v-53c0-3.2-0.2-5.4-0.7-6.8c-0.4-1.4-1.2-2.4-2.4-2.9c-1.2-0.5-3.1-0.8-5.7-1
		v-2.5c2.5,0.2,5.9,0.4,10.3,0.4c4.5,0,8.3-0.1,11.5-0.4l50.9,53.8v-29.4c0-6.1-0.2-10.5-0.7-13.2c-0.5-2.7-1.6-4.7-3.4-6
		c-1.7-1.2-4.5-2.2-8.5-2.7v-2.5c3.4,0.2,8,0.4,13.9,0.4c4.4,0,7.8-0.1,10.3-0.4V262.6z"/>
	<path class="st5" d="M489.1,327.3c0,8.5,0.3,15.4,0.9,20.9c-5.6-0.2-15.1-0.4-28.5-0.4c-19.4,0-33.9,0.1-43.6,0.4v-2.5
		c2.7-0.2,4.6-0.5,5.7-1c1.2-0.5,2.1-1.5,2.5-2.9c0.4-1.4,0.6-3.7,0.6-6.8v-61.7c0-3.2-0.2-5.4-0.7-6.8c-0.4-1.4-1.2-2.4-2.4-2.9
		c-1.2-0.5-3.1-0.8-5.7-1v-2.5c9.6,0.2,24.1,0.4,43.6,0.4c12.2,0,20.9-0.1,26-0.4c-0.6,7.8-0.9,14.8-0.9,20.9c0,3.8,0.1,6.8,0.4,9
		h-2.9c-1.5-9.6-4.3-16.5-8.3-20.7c-4.1-4.2-8.9-6.3-14.6-6.3h-1.6c-2.2,0-3.9,0.2-5,0.6c-1,0.3-1.7,1-2.1,2.1
		c-0.3,1-0.5,2.7-0.5,5.1v31.9h1.2c4.3,0,8-1.7,11.1-5.1c3.1-3.4,5-7.2,5.9-11.3h2.9c-0.2,3.5-0.4,7.4-0.4,11.7v6
		c0,4.2,0.2,10.1,0.7,17.7h-2.9c-0.7-4.7-2.7-8.6-5.9-11.7c-3.1-3.2-6.9-4.7-11.5-4.7H452v32.4c0,2.4,0.2,4.1,0.5,5.2
		c0.4,1,1.1,1.7,2.1,2.1c1.1,0.3,2.7,0.5,5,0.5h4.1c4.8,0,9.4-2.3,13.7-7c4.3-4.7,7.4-12.2,9.2-22.5h2.9
		C489.2,318.8,489.1,322.7,489.1,327.3z"/>
	<path class="st5" d="M384.8,262.6c-3,0.2-5.2,0.5-6.6,1c-1.3,0.5-2.2,1.5-2.7,2.9c-0.5,1.4-0.7,3.7-0.7,6.8v64.2
		c0,2.3,0.2,4,0.5,5.1c0.3,1.1,0.9,1.8,1.7,2.2c0.8,0.3,2.2,0.5,4.1,0.5h4.1c2.9,0,6.1-1.5,9.5-4.4c3.4-2.9,6.5-6.7,9.2-11.5
		c2.7-4.8,4.6-9.8,5.5-14.9h2.9c-0.2,3-0.4,6.8-0.4,11.5c0,9,0.3,16.3,0.9,22.2c-5.6-0.2-15.1-0.4-28.5-0.4
		c-19.4,0-33.9,0.1-43.6,0.4v-2.5c2.7-0.2,4.6-0.5,5.7-1c1.2-0.5,2.1-1.5,2.5-2.9c0.4-1.4,0.6-3.7,0.6-6.8v-61.7
		c0-3.2-0.2-5.4-0.7-6.8c-0.4-1.4-1.2-2.4-2.4-2.9c-1.2-0.5-3.1-0.8-5.7-1v-2.5c4.7,0.2,12.1,0.4,22.2,0.4c9.5,0,16.9-0.1,22-0.4
		V262.6z"/>
	<path class="st5" d="M307.5,262.6c-3,0.2-5.2,0.5-6.6,1c-1.3,0.5-2.2,1.5-2.7,2.9c-0.5,1.4-0.7,3.7-0.7,6.8v64.2
		c0,2.3,0.2,4,0.5,5.1c0.3,1.1,0.9,1.8,1.7,2.2c0.8,0.3,2.2,0.5,4.1,0.5h4.1c2.9,0,6.1-1.5,9.5-4.4c3.4-2.9,6.5-6.7,9.2-11.5
		c2.7-4.8,4.6-9.8,5.5-14.9h2.9c-0.2,3-0.4,6.8-0.4,11.5c0,9,0.3,16.3,0.9,22.2c-5.6-0.2-15.1-0.4-28.5-0.4
		c-19.4,0-33.9,0.1-43.6,0.4v-2.5c2.7-0.2,4.6-0.5,5.7-1c1.2-0.5,2.1-1.5,2.5-2.9c0.4-1.4,0.6-3.7,0.6-6.8v-61.7
		c0-3.2-0.2-5.4-0.7-6.8c-0.4-1.4-1.2-2.4-2.4-2.9c-1.2-0.5-3.1-0.8-5.7-1v-2.5c4.7,0.2,12.1,0.4,22.2,0.4c9.5,0,16.9-0.1,22-0.4
		V262.6z"/>
	<path class="st5" d="M258.9,262.6c-2.6,0.6-4.5,1.5-5.7,2.7c-1.2,1.2-2.1,3-2.5,5.5c-0.4,2.5-0.6,6.2-0.6,11.2v30
		c0,11.9-1.7,20.7-5.1,26.4c-2.2,3.7-5.6,6.6-10,8.6c-4.3,2-9.9,3-16.8,3c-10,0-17.8-2-23.4-6c-4.1-2.9-6.8-6.8-8.2-11.7
		c-1.3-4.9-2-11.5-2-19.9v-39.1c0-3.2-0.2-5.4-0.6-6.8c-0.4-1.4-1.2-2.4-2.5-2.9c-1.2-0.5-3.1-0.8-5.7-1v-2.5
		c4.7,0.2,12,0.4,21.9,0.4c9.8,0,17.2-0.1,22.3-0.4v2.5c-3,0.2-5.2,0.5-6.6,1c-1.3,0.5-2.2,1.5-2.7,2.9c-0.5,1.4-0.7,3.7-0.7,6.8
		v50.8c0,8,1.2,13.6,3.7,16.8c2.5,3.2,6.4,4.7,11.8,4.7c7.9,0,13.5-2.8,16.8-8.3c3.3-5.6,5-13.6,5-23.9v-28.9
		c0-6.1-0.2-10.5-0.7-13.2c-0.5-2.7-1.6-4.7-3.4-6c-1.7-1.2-4.5-2.2-8.5-2.7v-2.5c3.4,0.2,8,0.4,13.9,0.4c4.4,0,7.8-0.1,10.3-0.4
		V262.6z"/>
	<path class="st5" d="M171.3,262.6c-2.7,0.2-4.6,0.5-5.9,1c-1.2,0.5-1.9,1.5-2.4,2.9c-0.4,1.4-0.6,3.7-0.6,6.8V335
		c0,3.2,0.2,5.4,0.6,6.8c0.5,1.4,1.3,2.4,2.5,2.9c1.2,0.5,3.1,0.8,5.7,1v2.5c-5.1-0.2-12.4-0.4-22-0.4c-10,0-17.4,0.1-22.2,0.4v-2.5
		c3-0.2,5.1-0.5,6.5-1c1.4-0.5,2.4-1.5,2.9-2.9c0.5-1.4,0.7-3.7,0.7-6.8v-63.6l-30,76.7h-2l-35.1-79.9v55.6c0,6.1,0.2,10.6,0.7,13.3
		c0.5,2.7,1.6,4.6,3.2,5.8c1.7,1.2,4.6,2.2,8.6,2.7v2.5c-3.4-0.2-8-0.4-13.9-0.4c-4.4,0-7.8,0.1-10.3,0.4v-2.5
		c2.6-0.6,4.5-1.5,5.7-2.6c1.2-1.2,2.1-3.1,2.5-5.6s0.6-6.2,0.6-11.2v-53c0-3.2-0.2-5.4-0.7-6.8c-0.4-1.4-1.2-2.4-2.4-2.9
		c-1.2-0.5-3.1-0.8-5.7-1v-2.5c2.5,0.2,5.9,0.4,10.3,0.4c10,0,18.5-0.1,25.8-0.4L118,313l20.4-52.5h10.8c9.6,0,17-0.1,22-0.4V262.6z
		"/>
</g>
</svg>
